<svg width="22" height="22" viewBox="0 0 22 22" fill="none" xmlns="http://www.w3.org/2000/svg">
<g id="&#240;&#159;&#166;&#134; icon &#34;Line&#34;">
<path id="Vector" d="M13.3619 8.45617V11.9476C13.3619 12.036 13.2932 12.1048 13.2048 12.1048H12.645C12.5909 12.1048 12.5418 12.0753 12.5173 12.0409L10.9164 9.88026V11.9526C10.9164 12.0409 10.8477 12.1097 10.7593 12.1097H10.1995C10.1111 12.1097 10.0423 12.0409 10.0423 11.9526V8.46108C10.0423 8.37268 10.1111 8.30394 10.1995 8.30394H10.7544C10.8035 8.30394 10.8575 8.32849 10.882 8.37268L12.4829 10.5334V8.46108C12.4829 8.37268 12.5517 8.30394 12.64 8.30394H13.1999C13.2883 8.29903 13.3619 8.37268 13.3619 8.45617ZM9.33517 8.29903H8.77536C8.68697 8.29903 8.61822 8.36777 8.61822 8.45617V11.9476C8.61822 12.036 8.68697 12.1048 8.77536 12.1048H9.33517C9.42357 12.1048 9.49232 12.036 9.49232 11.9476V8.45617C9.49232 8.37268 9.42357 8.29903 9.33517 8.29903ZM7.98474 11.2258H6.45753V8.45617C6.45753 8.36777 6.38878 8.29903 6.30039 8.29903H5.74057C5.65218 8.29903 5.58343 8.36777 5.58343 8.45617V11.9476C5.58343 11.9918 5.59816 12.0262 5.62763 12.0557C5.65709 12.0802 5.69146 12.0999 5.73566 12.0999H7.97983C8.06822 12.0999 8.13697 12.0311 8.13697 11.9427V11.3829C8.13697 11.2994 8.06822 11.2258 7.98474 11.2258ZM16.3083 8.29903H14.0641C13.9807 8.29903 13.907 8.36777 13.907 8.45617V11.9476C13.907 12.0311 13.9757 12.1048 14.0641 12.1048H16.3083C16.3967 12.1048 16.4655 12.036 16.4655 11.9476V11.3878C16.4655 11.2994 16.3967 11.2307 16.3083 11.2307H14.7811V10.6414H16.3083C16.3967 10.6414 16.4655 10.5727 16.4655 10.4843V9.91954C16.4655 9.83115 16.3967 9.7624 16.3083 9.7624H14.7811V9.17312H16.3083C16.3967 9.17312 16.4655 9.10437 16.4655 9.01598V8.45617C16.4605 8.37268 16.3918 8.29903 16.3083 8.29903ZM21.9998 4.01202V18.0221C21.9949 20.2221 20.1926 22.0047 17.9878 21.9998H3.97764C1.77767 21.9949 -0.00490054 20.1877 1.01217e-05 17.9878V3.97764C0.00492078 1.77767 1.81204 -0.00490054 4.01202 1.01217e-05H18.0221C20.2221 0.00492078 22.0047 1.80713 21.9998 4.01202ZM18.9748 10.0325C18.9748 6.44771 15.3802 3.53077 10.9655 3.53077C6.55083 3.53077 2.95623 6.44771 2.95623 10.0325C2.95623 13.2441 5.80441 15.9351 9.65437 16.4458C10.5923 16.6471 10.4843 16.9909 10.2731 18.2529C10.2387 18.4543 10.1111 19.0435 10.9655 18.6851C11.82 18.3266 15.5766 15.9695 17.261 14.0347C18.4199 12.7579 18.9748 11.4664 18.9748 10.0325Z" fill="white"/>
</g>
</svg>
