<svg width="428" height="36" viewBox="0 0 428 36" fill="none" xmlns="http://www.w3.org/2000/svg">
<g id="Group">
<path id="Vector" d="M2.8678 21.0266H3.50508L3.82373 21.3451C4.14237 23.5752 3.18644 26.4425 0.955932 29.6283H0.637288H0.318644L0 29.3097C0.955932 27.7168 1.91186 25.4867 2.23051 22.6195V21.3451L2.8678 21.0266ZM7.01017 7.00886H7.32881C7.64746 7.00886 7.9661 7.32745 7.9661 7.32745L7.64746 9.87612L8.28475 10.1947C8.28475 10.1947 8.28475 10.8319 7.64746 11.7876C7.01017 12.7434 7.01017 14.6549 7.01017 17.2036C7.64746 17.2036 7.9661 17.5221 7.9661 17.8407V18.1593C7.9661 18.4779 7.64746 18.7965 7.01017 19.1151V28.0354C7.01017 28.6726 6.37288 29.6283 6.05424 30.9027H5.73559L5.09831 30.2655L5.73559 27.7168L5.41695 19.7522L0.955932 21.6637C0.318644 21.6637 0.318644 21.3451 0.318644 21.0266C0.955932 20.0708 2.54915 19.1151 5.41695 17.8407V17.2036V13.3805L3.50508 14.3363C3.18644 14.6549 2.8678 14.6549 2.8678 14.3363C2.23051 14.6549 1.59322 14.3363 1.59322 13.3805C1.59322 13.062 1.59322 11.7876 1.91186 9.55754V8.60178C1.91186 8.2832 2.23051 8.2832 2.54915 7.96462H3.18644C3.82373 8.92037 3.82373 10.5133 3.18644 12.4248V12.7434H3.50508C4.14237 12.7434 5.09831 12.1062 6.05424 10.8319V9.23895C6.37288 9.23895 6.37288 8.60178 6.37288 7.32745L7.01017 7.00886ZM21.6678 13.3805H21.9864C22.3051 13.3805 22.6237 13.6991 22.6237 14.0177V17.5221L25.4915 16.2478L26.1288 16.5664V16.885C26.1288 17.2036 25.1729 18.1593 22.6237 19.4336V31.2213C22.6237 32.8142 21.9864 33.7699 20.7119 34.0885C19.7559 34.0885 18.8 33.7699 18.1627 32.8142V32.177C18.8 32.177 19.4373 32.177 20.3932 32.4956C21.3492 32.4956 21.6678 30.9027 21.3492 27.0797L20.7119 20.0708C20.7119 20.0708 19.7559 20.3894 17.8441 21.0266L17.2068 21.3451C16.2508 21.9823 13.7017 22.3009 10.5153 22.9381C10.1966 22.9381 9.87797 22.6195 9.87797 22.3009V21.6637C9.87797 21.3451 10.5153 21.0266 12.4271 21.0266C14.0203 21.0266 16.5695 20.3894 19.4373 19.1151C20.7119 19.1151 21.3492 18.1593 21.0305 16.5664V13.6991L21.6678 13.3805ZM17.8441 2.2301H18.4814L18.8 2.54869V3.50444H19.1186L21.6678 2.54869H22.3051L22.6237 3.18585C22.9424 3.50444 21.3492 6.3717 18.1627 12.1062C18.1627 12.1062 17.5254 12.4248 17.2068 13.6991L14.6576 17.2036L13.383 18.1593L12.7458 17.8407V17.5221C13.7017 16.5664 14.9763 14.9735 16.2508 13.062L14.339 13.3805C14.0203 13.3805 13.7017 12.7434 13.7017 12.1062C13.7017 11.7876 14.0203 11.469 14.339 11.469H15.2949L17.2068 10.8319L18.1627 9.55754H17.8441H14.9763H14.339L14.0203 8.60178V8.2832C14.0203 7.96462 14.0203 7.96462 14.6576 7.64603L17.8441 7.96462L19.1186 8.2832C19.1186 8.2832 19.7559 7.32745 20.7119 5.09736V4.77877L18.8 5.09736H18.4814C17.8441 5.09736 17.5254 4.46019 17.2068 3.82302V2.54869C17.5254 2.2301 17.5254 2.2301 17.8441 2.2301ZM16.8881 23.8938H17.5254C18.1627 24.2124 18.8 25.1682 19.7559 26.1239L20.0746 26.4425L19.4373 27.0797H19.1186C18.8 26.7611 17.8441 26.1239 16.5695 25.1682L16.2508 24.531C16.2508 24.2124 16.5695 23.8938 16.8881 23.8938Z" fill="#C09771"/>
<path id="Vector_2" d="M54.8068 10.5133L55.7627 10.8319V11.469C55.7627 11.7876 55.1254 12.1062 53.5322 12.1062C53.5322 12.1062 51.3017 12.4248 46.8407 13.6991L44.6102 14.6549L45.5661 30.5841L45.2475 33.1327C45.2475 33.7699 44.9288 34.0885 44.2915 34.4071C43.9729 34.4071 43.3356 34.0885 43.3356 33.7699C43.0169 33.4513 43.3356 33.1327 43.9729 32.8142C44.2915 32.8142 44.2915 31.8584 43.9729 29.9469L43.6542 28.0354C43.0169 28.9911 42.061 30.2655 40.1491 31.5398C39.8305 31.8584 39.1932 32.4956 37.6 32.8142H37.2814L36.6441 32.177V31.5398C36.6441 31.2212 37.2814 30.9026 38.8746 30.2655C39.1932 30.2655 40.7864 28.9911 43.3356 26.4425L43.0169 23.8938L42.3797 24.2124C42.3797 24.2124 41.7424 24.531 40.4678 25.1681L39.1932 26.1239L39.5119 28.354V28.6726H39.1932C38.8746 28.6726 38.5559 28.0354 38.2373 26.4425L37.9186 25.4867L38.2373 24.531L38.5559 17.2035V15.6106L33.7763 16.5664C33.4576 16.5664 33.139 16.2478 33.139 15.9292V15.292C33.139 14.6549 34.0949 14.3363 36.6441 14.3363C42.3797 13.3805 48.4339 12.4248 54.8068 10.5133ZM43.0169 21.0265L39.8305 22.6195C39.5119 22.6195 39.5119 23.2566 39.5119 23.8938L41.7424 22.938H43.0169V21.0265ZM42.3797 14.9734L40.1491 15.6106C40.1491 16.5664 40.1491 17.8407 39.8305 19.115V21.0265L43.0169 19.7522C43.3356 17.8407 43.0169 16.2478 42.3797 14.9734ZM41.1051 1.9115C41.7424 1.9115 42.061 1.9115 42.3797 2.54867L42.6983 2.23008C45.2475 1.59291 47.478 2.23008 50.0271 3.823C50.3458 4.14159 50.3458 4.46017 50.3458 5.41592C50.3458 6.69026 50.0271 7.64601 49.0712 8.28318L49.3898 8.92035C49.0712 9.23893 48.1153 9.55752 46.522 10.1947L43.0169 11.1504L42.6983 12.4248L42.061 12.7434C41.7424 12.7434 41.4237 12.1062 41.4237 11.1504C42.061 9.8761 41.7424 7.64601 40.7864 3.823L40.4678 2.86725C40.7864 2.23008 41.1051 1.9115 41.1051 1.9115ZM44.9288 3.50442L42.6983 4.14159L43.0169 6.37168L45.8847 5.73451H47.1593C47.7966 5.41592 47.7966 5.41592 47.7966 5.73451V6.05309C48.1152 6.69026 47.1593 7.00884 45.5661 7.00884L43.3356 7.64601L42.6983 7.9646V8.60176C43.6542 8.60176 45.2475 8.28318 47.1593 7.32743L48.1153 5.41592V4.77876C48.4339 3.823 47.1593 3.50442 44.9288 3.50442ZM53.8508 17.2035H55.1254C56.0813 17.2035 56.7186 17.8407 57.3559 19.115C57.6746 20.0708 57.0373 22.3009 54.8068 26.1239C56.4 28.354 59.2678 29.9469 63.7288 31.2212L65.6407 31.5398V31.8584C65.322 32.177 64.6847 32.4956 63.7288 32.4956C61.4983 32.8142 57.9932 31.2212 53.8508 27.7168C53.5322 28.354 52.8949 28.9911 51.6203 29.9469H50.983L50.6644 29.6283L52.5763 27.0796L52.8949 26.4425L50.0271 23.8938C49.7085 23.8938 49.3898 23.5752 49.3898 23.2566V22.6195C50.0271 21.9823 50.0271 21.6637 50.0271 21.6637H50.3458C51.3017 22.3009 52.5763 23.2566 53.5322 24.531C53.8508 24.2124 54.4881 22.938 55.4441 20.3894V19.4336C55.4441 19.115 55.1254 18.7965 54.8068 18.7965L52.2576 19.115L51.939 18.4779V17.8407C51.6203 17.5221 52.5763 17.2035 53.8508 17.2035Z" fill="#C09771"/>
<path id="Vector_3" d="M83.4847 18.1593H84.122C84.4407 18.1593 84.4407 19.4336 84.122 21.3451V21.6637C86.3525 21.0265 88.583 20.0708 90.8135 18.1593H91.4508L91.7695 18.4779V18.7965C90.4949 20.3894 87.9457 21.9823 83.8034 23.5752C84.122 23.5752 84.4407 24.2124 85.078 24.8496C87.3085 27.3982 91.1322 30.2655 96.8678 33.7699L98.7796 35.0442V35.3628C98.7796 35.6814 98.1424 35.6814 96.8678 34.7257L89.2203 30.5841C87.3085 29.3097 85.3966 27.7168 83.1661 25.1681C82.5288 27.7168 80.6169 31.2212 77.1119 35.6814L76.4746 36C76.1559 36 75.8373 36 75.5186 35.6814C78.3864 32.8142 80.2983 28.9911 81.5729 24.2124C81.2542 24.2124 78.3864 24.8496 72.6508 26.7611C72.3322 26.4425 72.0135 26.1239 72.0135 25.8053C72.0135 25.4867 73.9254 24.531 77.7491 23.5752L82.2102 22.3009C82.5288 21.9823 82.8474 21.0265 82.8474 19.7522C83.1661 19.4336 83.1661 19.115 82.8474 18.4779L83.4847 18.1593ZM86.3525 0H86.9898L87.6271 0.318584C87.6271 1.27434 87.6271 2.23009 87.3085 3.18584H89.2203H89.8576V3.50442C90.1763 4.14159 88.9017 4.77876 85.7152 5.41593C85.7152 5.41593 84.7593 5.73451 82.8474 7.00885C83.1661 7.00885 83.8034 7.64602 84.122 9.23894L84.4407 10.1947L86.9898 8.92035H87.6271C87.9458 9.23894 86.9898 10.1947 84.7593 11.469L84.4407 14.0177L84.122 14.9735C84.122 14.9735 85.078 14.9735 86.3525 14.3363L87.6271 14.0177L88.2644 14.3363C88.583 14.9735 87.3085 15.9292 84.122 16.885C83.1661 17.8407 81.2542 18.4779 78.7051 19.115C78.3864 18.7965 78.0678 18.4779 78.0678 18.1593C78.0678 17.8407 78.7051 17.5221 79.9797 17.2035L82.5288 15.9292C82.5288 15.292 82.8474 14.0177 82.8474 12.4248L79.661 13.3805L78.3864 13.6991C77.7491 13.6991 77.7491 13.3805 77.7491 12.7434C77.7491 12.4248 78.3864 12.1062 79.9797 11.7876C80.6169 11.7876 81.5729 11.1504 82.5288 10.5133C82.5288 9.55752 82.2102 8.60177 81.8915 7.32743V7.00885L77.1119 7.64602L76.4746 6.69027V6.37168C76.4746 6.0531 77.1119 5.73451 78.7051 5.41593L79.9797 4.77876C79.661 3.82301 79.3424 2.54867 78.3864 1.59292V1.9115L78.7051 1.59292H79.661C80.2983 1.27434 80.9356 2.54867 81.5729 5.09734H81.8915L85.078 3.82301C85.3966 3.82301 85.7152 2.86726 86.0339 1.27434V0L86.3525 0Z" fill="#C09771"/>
<path id="Vector_4" d="M110.888 15.9292H111.844L112.163 16.2478V16.5664L109.614 17.8407L106.746 19.1151H106.427C106.108 18.7965 105.79 18.4779 105.79 18.1593C105.79 17.8407 106.746 17.2036 108.976 16.5664L110.888 15.9292ZM113.119 22.3009H113.756V22.6195C113.437 23.5752 112.163 25.4867 109.614 28.354L107.383 30.2655H107.064C106.746 30.2655 106.427 29.9469 106.427 29.6283V29.3098C108.02 28.0354 110.251 25.8053 113.119 22.3009ZM107.702 7.32746C107.702 7.32746 108.339 7.32746 109.295 8.28321C110.569 8.60179 111.525 9.55754 112.481 10.5133V10.8319L112.163 11.1505C110.888 10.8319 109.614 10.1947 107.702 9.23896L107.064 8.60179L106.746 7.96462C107.064 7.32746 107.383 7.32746 107.702 7.32746ZM126.502 6.69029H127.458C128.414 6.3717 129.051 7.00887 129.688 8.28321V8.60179V9.23896C129.369 12.7434 127.139 15.6106 122.359 18.1593C121.403 18.4779 121.085 19.1151 121.085 20.3894L120.447 29.3098V31.8584C121.085 31.2213 122.997 28.9912 125.546 24.8496L122.678 22.3009V21.3452C122.678 21.0266 122.997 20.708 123.634 20.708L125.864 22.6195L126.183 22.9381C126.502 22.3009 128.095 21.3452 130.007 19.1151H130.644V19.7522V20.0708C130.963 20.3894 130.325 21.0266 128.732 21.9823L127.458 23.8938V24.2124C129.688 27.0797 133.193 29.9469 137.973 32.4956L138.292 32.8142L137.973 33.1328C135.105 32.8142 131.281 30.2655 126.502 25.8053C126.183 25.8053 125.227 27.3983 123.315 30.5841L121.722 32.8142L120.447 33.7699H119.492C119.173 33.7699 119.173 33.4514 119.173 32.177C119.173 30.5841 119.173 28.354 119.492 24.8496L119.81 22.3009C120.129 22.3009 120.129 20.3894 120.129 16.5664V15.6106L120.447 9.55755L120.129 9.23896C119.173 9.23896 118.854 8.92038 119.173 7.96462C119.173 7.64604 119.81 7.64604 121.085 7.64604C121.403 7.64604 123.315 7.32746 126.502 6.69029ZM122.041 2.23011C123.315 1.91153 124.59 2.5487 125.864 3.82303L125.546 4.77878L123.634 4.14162H122.997L121.403 3.82303C121.085 3.18586 121.403 2.5487 122.041 2.23011ZM127.776 11.1505L121.722 14.3363V16.885H122.041C123.634 15.9292 125.227 14.9735 126.502 13.6991L127.776 11.1505ZM126.82 7.96462L122.041 8.92038C121.722 8.92038 121.722 9.87613 121.722 11.469V12.4248L126.502 10.1947L127.458 9.87613H128.095C128.414 9.87613 128.414 9.23896 128.414 8.60179C128.095 7.96462 127.776 7.96462 127.458 7.96462H126.82ZM126.82 23.2567L126.502 23.5752V23.8938L126.82 23.2567Z" fill="#C09771"/>
<path id="Vector_5" d="M149.125 15.6107H149.763L150.081 15.9293V16.2479C150.081 16.5664 149.444 16.885 147.851 17.5222L144.983 19.1151H144.664L144.027 18.478V18.1594C144.027 17.8408 144.346 17.5222 145.62 17.2036C146.576 16.5665 147.851 15.9293 149.125 15.6107ZM150.4 20.0709H151.037C150.4 22.6195 149.125 25.1682 146.895 27.3983L145.62 28.6726C144.983 28.6726 144.664 28.3541 144.664 28.0355V27.7169C146.258 26.7611 148.169 24.2125 150.4 20.0709ZM147.214 7.96468L151.037 9.23902L151.675 9.87618V10.1948C151.675 10.8319 150.719 10.8319 148.807 10.1948L146.576 9.87618C146.258 9.87618 145.939 9.23902 145.939 8.60185C146.576 8.28326 146.895 7.96468 147.214 7.96468ZM167.288 10.1948H168.563C169.2 10.5134 169.519 10.8319 169.519 11.4691V12.1063C168.881 14.6549 167.288 16.5664 164.739 17.8408H164.42C164.102 17.8408 163.783 17.5222 163.783 17.2036C162.508 17.5222 161.553 18.1594 160.278 18.7965L158.685 19.1151C158.366 19.1151 158.366 19.1151 158.047 18.478C158.047 19.1151 157.729 19.4337 157.41 19.4337H157.092C156.773 19.4337 156.136 18.478 155.817 15.9293L154.861 12.7434V12.4249C154.861 12.1063 155.498 12.1063 155.817 11.7877C156.136 11.7877 156.454 12.4249 156.773 13.6992C158.047 12.7434 159.322 12.1063 160.915 11.7877L167.288 10.1948ZM163.464 1.27441H165.376C166.014 1.27441 166.651 1.91158 166.651 2.23017C166.651 5.41601 165.058 7.96468 162.19 9.87618C161.553 9.5576 160.597 9.87618 159.003 10.8319L158.366 11.4691H158.047C157.729 11.4691 157.729 10.8319 157.729 9.23902L156.454 4.14167C156.454 4.14167 156.136 3.82309 156.136 3.18592C156.136 2.86733 156.454 2.54875 156.773 2.54875C157.092 3.18592 158.047 2.86733 159.322 2.23017C159.322 1.91158 160.597 1.91158 162.827 1.593L163.464 1.27441ZM159.959 13.6992L157.41 14.9735H157.092L157.729 17.8408C157.729 17.5222 158.685 16.885 160.915 16.2479V15.9293C160.915 15.9293 160.597 15.6107 160.597 14.6549L159.959 13.6992ZM163.783 2.54875L159.959 3.18592C159.322 3.5045 158.685 3.82309 158.047 4.14167L158.685 6.37176C158.685 5.73459 159.641 5.41601 160.915 5.09742C160.915 4.77884 161.871 4.77884 162.827 4.46025H163.146C163.464 4.46025 163.783 4.77884 163.783 5.09742V5.41601C163.783 5.73459 163.146 6.05318 161.553 6.37176L159.641 7.32751C159.322 7.32751 159.003 7.32751 158.685 6.69034H158.366L159.322 8.92043C159.641 9.23902 160.915 8.60185 163.146 7.32751C164.42 6.37176 165.058 4.77884 165.376 2.86733L165.058 2.54875H163.783ZM165.058 19.4337H165.695C166.014 19.7523 166.332 19.7523 166.332 20.0709C166.651 20.708 165.695 23.2567 163.464 27.7169L167.925 31.2213L171.749 33.4514C172.068 33.77 172.386 34.0886 172.386 34.0886V34.4072C172.068 34.7257 171.749 34.7257 171.43 34.7257C169.519 34.4072 166.332 32.8142 162.19 29.3098C162.508 29.6284 161.553 30.2656 159.641 32.1771C159.322 32.1771 159.003 32.1771 158.685 31.8585V31.5399C159.003 31.5399 159.959 30.5842 161.234 28.3541V28.0355L158.366 25.8054L158.047 24.8496C158.366 24.5311 158.685 24.2125 158.685 24.2125H159.322L162.19 26.4426C162.508 26.124 163.464 24.5311 164.739 21.3452V20.708C164.739 20.3895 162.827 21.0266 159.959 22.6195C159.322 23.2567 158.685 23.2567 158.366 22.301C158.366 21.9824 158.685 21.6638 159.959 21.3452C160.597 20.708 162.508 20.0709 165.058 19.4337ZM163.464 12.7434L161.871 13.062L162.19 15.6107H162.508C163.146 15.2921 163.783 14.3364 163.464 12.7434ZM166.969 11.7877L165.376 12.1063L165.058 14.6549H165.376C166.332 14.6549 167.288 14.0178 167.925 12.7434V11.7877H166.969Z" fill="#C09771"/>
<path id="Vector_6" d="M183.858 4.46013C184.495 4.46013 184.814 4.77871 184.814 5.0973C184.814 6.05305 184.176 7.96455 182.583 10.5132L185.451 9.87606H185.769C186.088 9.87606 186.407 10.1946 186.407 10.5132C186.407 12.1061 185.769 14.3362 183.858 16.8849C184.495 16.5663 185.769 15.9292 188 15.292C188.319 15.292 188.637 15.9292 188.637 16.5663C188.637 17.5221 187.681 18.7964 186.088 20.0707V20.3893C187.044 21.0265 188 22.3008 188.956 23.8938L190.231 25.4867V25.8053L189.912 26.1238H189.593L186.725 22.938H186.407V30.584L185.769 32.1769L185.132 32.8141H184.495C183.858 32.8141 183.539 32.4955 182.902 31.5398V30.2654H183.22L184.495 31.8584C185.132 31.5398 185.451 28.6725 184.814 23.8938L183.22 26.761L182.583 27.3982H181.627V26.761C181.627 26.761 181.946 26.1238 182.583 24.8495C183.539 23.5752 184.176 21.9823 184.495 20.0707L184.176 18.7964L184.814 18.1592H185.451L186.088 18.7964C186.725 18.1592 187.363 17.5221 187.363 16.8849C187.044 16.5663 185.451 17.5221 182.264 19.7522H181.627C181.308 19.7522 181.308 19.4336 180.99 19.115C180.671 19.115 181.308 18.1592 182.583 16.5663C183.22 15.9292 184.176 14.6548 184.814 12.7433V11.469L182.264 12.4247C181.308 12.4247 180.99 12.4247 180.99 12.1061L180.671 11.7876C180.353 11.7876 180.671 11.1504 181.627 9.87606C181.946 9.55747 182.583 7.96455 183.539 5.41588C183.22 4.77871 183.539 4.46013 183.858 4.46013ZM192.78 3.18579L195.966 3.50438L196.603 3.82296C196.603 4.14154 196.603 4.46013 196.285 5.0973C196.603 5.41588 196.603 5.73446 196.603 6.05305C195.329 7.0088 194.692 8.60172 195.01 9.87606V11.7876H195.329C196.922 10.8318 197.559 9.55747 197.559 7.64597C197.559 7.32738 197.559 7.0088 197.559 6.69022L197.878 6.37163H198.197C198.515 6.05305 198.834 6.69022 198.834 7.96455C198.834 9.55747 198.197 10.8318 197.241 12.1061C198.515 12.1061 199.79 11.469 201.383 10.8318C201.383 10.5132 201.383 8.9203 201.064 6.37163L201.702 5.73446H202.339C202.976 5.73446 202.976 6.69022 202.976 8.28314L203.295 9.55747V10.1946L205.207 9.87606C205.844 9.87606 205.844 10.5132 204.888 11.1504L203.295 11.7876C203.295 13.0619 204.251 16.2477 205.207 20.7079L207.756 14.0176L208.393 13.6991C209.031 14.0176 208.712 15.6106 207.119 19.115L205.525 22.938C205.844 24.2123 206.481 25.8053 207.119 27.0796L207.437 24.8495H207.756C208.393 26.1238 208.393 27.7168 207.756 29.6283C207.437 29.9469 207.119 29.9469 207.119 29.9469C206.481 29.3097 205.525 27.7168 204.569 25.1681C204.569 25.4867 204.251 26.1238 203.295 27.0796L202.339 28.0353H201.702C201.383 27.7168 201.702 27.3982 202.339 26.4424L203.932 23.2566C204.251 23.2566 203.932 22.3008 203.614 20.7079L201.383 12.1061C200.427 12.7433 196.922 13.6991 190.868 15.292L189.275 15.9292C188.956 15.9292 188.637 15.6106 188.637 15.292V14.6548C188.637 14.3362 189.275 14.0176 190.868 14.0176L193.417 13.0619V8.9203L191.824 9.23889H191.505C190.868 8.9203 190.868 8.60172 190.868 8.60172V8.28314C190.549 7.96455 191.186 7.64597 192.461 7.0088C192.78 7.0088 193.417 6.37163 194.692 5.0973L192.461 4.77871C192.142 4.46013 192.142 4.14154 192.142 3.82296C192.461 3.50438 192.461 3.18579 192.78 3.18579ZM194.692 14.9734C195.329 15.292 195.647 15.6106 195.647 15.6106V15.9292H196.603C197.559 15.9292 198.515 16.2477 199.153 17.5221L199.471 18.4778C199.79 18.4778 199.79 20.3893 199.79 24.2123C200.108 24.2123 200.108 25.1681 199.471 26.761C199.471 27.7168 199.153 28.0353 198.515 28.3539C198.515 28.3539 197.878 28.3539 196.922 27.7168L195.329 28.3539H195.01L194.692 27.7168C194.692 27.3982 195.01 27.0796 196.285 26.761L198.197 25.1681V22.6194L195.01 24.2123L194.692 24.8495V25.4867C194.692 25.4867 194.692 26.1238 194.692 26.761V27.3982C194.692 27.3982 194.692 27.7168 194.692 28.3539C194.692 29.3097 194.054 29.3097 193.417 28.6725V27.7168V23.2566C193.736 22.6194 193.736 21.9823 193.417 21.0265L194.373 15.6106L194.692 14.9734ZM195.647 16.8849C195.329 17.5221 195.329 19.4336 195.01 22.3008L198.197 21.0265V19.115C198.197 18.1592 197.878 17.2035 196.603 16.8849H195.647ZM204.888 5.0973C205.525 5.0973 206.8 5.41588 208.075 6.37163L208.712 7.32738C208.712 7.64597 208.075 7.64597 207.119 7.32738C206.481 7.0088 205.844 7.0088 204.569 6.69022L204.251 6.37163V5.73446C204.569 5.41588 204.569 5.41588 204.888 5.0973Z" fill="#C09771"/>
<path id="Vector_7" d="M231.336 7.32742H231.654C231.973 7.32742 232.292 7.96459 232.61 9.23893C232.929 9.23893 234.522 8.92034 237.39 7.96459H237.708L238.027 8.28317V8.60176C238.027 8.92034 237.39 9.23893 235.797 9.87609L233.247 10.8318C234.203 14.0177 235.478 17.8407 236.115 21.6637L236.434 21.9823L238.664 15.9292L239.302 14.9734H239.939L240.258 15.292L237.071 23.8938V24.2124C237.708 26.1239 238.983 27.7168 240.576 28.6726H240.895C241.214 28.6726 241.532 27.7168 241.851 26.4425H242.17C242.17 27.0796 242.488 27.3982 242.17 28.0354L241.532 29.9469L240.895 30.5841H240.258C238.664 29.9469 237.39 28.6726 236.753 27.0796L236.115 26.4425C236.115 26.4425 235.478 27.3982 234.841 28.9911C234.841 28.9911 234.203 30.2655 232.61 32.4956H232.292L231.973 31.8584L232.929 29.3097L235.159 24.531L231.336 11.7876L231.017 11.469C229.424 12.1062 226.875 12.7434 224.007 13.3805L223.369 13.6991L223.688 17.8407V18.7964C224.963 18.4779 226.556 18.4779 229.105 18.7964L229.424 19.115V19.4336C229.424 20.708 228.149 22.3009 224.963 24.531H224.644C224.325 24.531 224.325 24.2124 224.325 23.8938C224.644 23.8938 225.919 22.6195 227.831 20.3894L228.149 19.4336H226.556L224.325 19.7522C223.688 19.4336 223.37 20.3894 223.051 22.6195C223.051 23.5752 222.414 25.4867 221.139 28.354L220.502 28.9911C219.864 28.9911 220.183 27.7168 221.139 25.8053C221.776 24.2124 222.095 22.6195 222.095 20.708V19.7522L222.414 19.115C222.732 18.7964 222.732 17.5221 222.414 14.6549L222.095 14.3363L221.776 13.0619H220.183C219.864 13.3805 219.546 13.0619 219.546 12.7434C219.546 12.4248 219.864 11.7876 220.183 11.7876H221.458C222.095 12.1062 225.281 11.469 230.698 9.87609L230.38 7.96459C230.698 7.64601 230.698 7.32742 231.336 7.32742ZM235.159 3.823H235.797C237.071 4.14158 238.027 4.77875 239.302 5.7345L239.939 6.69025C239.939 7.32742 239.302 7.32742 238.027 6.37167C237.39 6.05309 236.434 5.7345 234.841 5.41592V4.46017C234.841 3.823 234.841 3.823 235.159 3.823Z" fill="#C09771"/>
<path id="Vector_8" d="M261.288 8.60179C261.607 8.60179 261.607 8.60179 261.925 9.23896C261.607 9.87613 260.97 11.469 259.376 13.3806H259.695H260.332C260.651 13.3806 260.651 13.6991 260.651 14.0177V20.0708L260.332 20.3894V20.708C260.332 21.3452 259.695 24.2124 257.783 29.3098L257.464 28.9912V27.0797L258.42 22.6195C258.739 22.6195 258.739 21.6637 259.058 19.7522V19.4337C259.058 19.4337 259.376 19.1151 259.058 18.4779V14.9735V14.3363C257.783 16.2478 255.871 19.1151 253.322 22.9381L253.003 22.3009L252.685 21.9823C252.366 21.6637 253.959 18.7965 257.783 13.062L259.058 11.1505L260.332 8.92038L261.288 8.60179ZM271.485 12.4248H272.122C272.759 12.4248 273.078 13.062 273.078 14.3363C273.397 17.5221 273.397 22.3009 272.441 28.6726C272.122 28.9912 272.122 28.9912 272.441 29.3098C272.441 29.6283 272.122 29.6283 271.485 29.9469C270.847 30.2655 268.936 28.6726 266.386 25.1682C266.068 25.4867 266.068 26.1239 266.068 26.7611C266.068 27.0797 266.068 27.0797 265.749 27.3983C265.112 27.0797 265.112 26.7611 264.793 26.4425C264.793 26.4425 264.793 24.8496 265.749 21.6637V20.708C265.749 20.3894 266.068 20.0708 266.386 20.0708H267.024L267.342 20.3894C267.342 21.3452 267.342 22.6195 266.705 24.531L270.529 28.354L270.847 28.0354L271.166 27.7168C271.485 25.8053 271.803 21.6637 271.803 15.9292V12.7434L271.485 12.4248ZM269.254 6.3717H270.21C270.848 6.3717 270.529 7.00887 269.892 8.60179L269.254 10.1947H269.573L270.847 9.87613C271.803 9.23896 274.353 8.60179 277.858 7.96462H278.495C280.088 8.60179 279.132 10.5133 275.309 13.3806H274.671L274.353 13.062C275.309 12.4248 276.583 11.1505 277.539 9.55754V9.23896H277.22L271.485 11.1505L270.847 11.469C270.21 11.7876 269.573 11.7876 268.298 11.7876C267.661 11.469 267.661 11.469 267.661 11.1505C267.342 10.8319 267.98 9.23896 269.254 6.3717ZM277.539 20.708H278.176C278.176 20.708 278.814 21.3452 279.77 22.6195L281.044 24.2124C281.681 24.2124 281.681 25.1682 282 27.0797L281.681 27.7168H281.044C280.725 26.1239 279.451 24.2124 277.22 21.9823V21.6637C277.22 21.0266 277.22 20.708 277.539 20.708Z" fill="#C09771"/>
<path id="Vector_9" d="M296.339 4.77881C296.976 4.77881 297.295 4.77881 297.295 5.09739C297.614 5.09739 296.976 6.37173 296.02 8.28323C296.02 8.28323 295.702 8.60182 296.02 9.55757V26.7611L295.383 27.3983C295.064 27.3983 294.746 27.0797 294.427 26.1239C294.108 23.5753 294.108 19.7523 294.427 14.0177V11.4691C293.471 12.4248 292.197 14.3363 290.603 17.2036L289.966 18.1593L289.647 18.4779L289.329 18.1593C289.01 17.8408 290.603 14.9735 294.746 9.23899C295.064 8.60182 295.702 7.32748 296.658 5.41598L296.339 4.77881ZM300.163 7.64607C301.437 7.64607 302.712 7.64606 303.986 8.28323C304.624 8.60182 304.942 8.9204 305.261 9.87615C305.261 11.1505 304.942 12.1062 304.305 13.6992V14.3363C303.668 15.2921 302.393 16.2478 300.481 16.885L300.163 22.9381V25.4868C300.163 25.8054 299.844 26.1239 299.525 26.1239C298.888 25.8054 298.888 25.1682 298.888 23.8939V18.7965C299.207 16.885 299.207 13.3806 298.569 8.60182C298.569 7.96465 299.207 7.96465 300.163 7.64607ZM301.437 9.23899L300.163 9.55757L300.481 11.4691L303.03 10.8319L303.668 11.1505C303.668 11.1505 303.986 10.8319 303.668 10.1947C303.349 9.23899 302.712 8.9204 301.437 9.23899ZM302.712 12.1062L300.481 13.3806V14.9735H301.119C301.756 15.2921 302.712 14.3363 303.349 12.1062H302.712ZM314.82 4.77881H316.095C317.688 4.77881 318.007 7.0089 317.369 11.4691V13.062L318.007 23.5753L318.644 28.354V30.5841C318.644 30.9027 318.325 31.2213 318.007 31.5399H317.369C315.458 30.5841 314.502 28.9912 313.864 27.3983V27.0797H314.183C314.82 27.7169 316.095 28.6726 317.369 30.2655H317.688C318.007 30.2655 318.007 28.0354 317.369 24.2124L316.732 15.9293V15.2921L311.634 15.9293H310.997C310.359 15.9293 310.041 15.2921 310.041 13.6992C310.359 12.7434 310.359 10.5133 310.041 7.32748L309.722 6.69031C309.403 6.05314 310.678 5.41598 313.227 5.09739L314.82 4.77881ZM315.776 10.5133C314.82 11.1505 313.546 11.7877 311.953 12.1062L311.634 14.0177C311.634 14.3363 312.59 14.3363 313.864 13.6992L316.095 13.3806L315.776 10.5133ZM315.139 6.05314C314.82 6.05314 313.546 6.37173 312.271 7.0089L311.953 7.32748V9.55757V10.1947L315.776 8.9204V6.69031L315.139 6.05314Z" fill="#C09771"/>
<path id="Vector_10" d="M334.576 7.64608H334.895L335.214 7.96467C335.214 8.60184 333.62 9.55759 330.753 10.8319C331.071 11.4691 331.071 12.7434 331.071 14.3364C331.708 14.0178 332.664 13.6992 333.939 13.6992C335.532 13.6992 336.17 16.5664 335.851 21.9824V23.2567C336.17 23.8939 336.17 24.8496 335.851 26.4425L335.214 27.0797H334.576L333.939 26.7611C332.983 27.3983 332.027 27.3983 330.753 27.0797L330.434 27.3983L329.797 26.7611V16.5664L329.478 11.4691L329.159 10.8319H328.522C328.203 10.8319 327.885 10.5133 327.885 9.87617C327.885 9.55759 328.841 8.92042 331.071 8.60184L334.576 7.64608ZM334.576 21.3452L331.39 22.9381L331.071 23.2567V25.4868L332.346 25.8054C332.983 25.8054 333.62 25.4868 334.258 24.8496V21.3452H334.576ZM332.983 15.2921C332.346 15.2921 331.708 15.6107 331.071 16.2479V21.3452L333.939 20.0709H334.576C334.895 19.7523 334.895 18.4779 334.576 16.5664C334.576 16.2479 334.258 15.9293 333.939 15.6107C334.258 15.2921 333.939 15.2921 332.983 15.2921ZM343.498 5.09741H344.136L344.454 5.73458L344.136 7.3275L344.773 7.96467C346.366 8.28325 348.278 8.28325 350.19 7.00892C351.464 7.00892 352.102 10.8319 351.464 18.1594L351.783 18.4779C351.464 18.4779 351.464 19.7523 351.464 21.9824V29.947C351.783 30.2656 351.464 30.5841 350.508 31.2213H349.553C348.278 30.9027 347.003 29.947 346.366 28.0355H346.685L348.915 29.6284L349.553 29.947C349.871 29.3098 349.871 28.0355 349.553 26.7611C349.871 26.7611 349.871 26.124 349.553 25.1682V9.55759L349.234 8.92042C348.278 9.55759 347.003 9.87617 345.092 9.87617C344.773 9.87617 343.817 9.87617 342.542 9.23901C341.905 8.92042 341.905 8.60184 341.905 7.3275L343.498 5.09741ZM343.817 17.5222H344.454C345.41 18.4779 346.366 19.1151 347.641 20.0709C347.641 20.3894 347.641 20.708 347.003 21.0266H346.366C345.41 21.0266 344.454 20.0709 343.18 18.7965V18.1594L343.817 17.5222Z" fill="#C09771"/>
<path id="Vector_11" d="M375.363 7.64605C375.681 7.64605 376 7.96463 376.319 8.28322C376 11.1505 375.681 14.3363 376.319 18.1593L377.912 16.885C378.231 16.5664 380.461 14.6549 384.922 11.4691C385.559 11.4691 385.878 12.1062 385.878 12.7434C385.559 14.6549 385.559 16.885 386.197 19.7522C386.515 21.3452 388.109 23.2567 390.02 25.1682C390.339 25.4868 390.339 25.8053 390.339 27.0797C390.02 29.3098 388.427 31.5399 385.878 33.7699H385.241C385.241 33.7699 385.241 33.1328 385.878 32.177L388.427 28.6726C388.746 28.354 388.746 27.7168 388.746 26.7611V26.4425C388.427 25.8053 387.79 24.8496 385.878 23.2567C383.966 21.6637 383.647 18.4779 383.966 13.6991V13.3806H383.647C380.78 15.2921 377.912 17.5222 375.681 20.3894L376.319 29.9469V30.2655C376.319 30.9027 376 31.2213 375.363 31.2213C374.407 31.8584 372.176 30.5841 368.671 27.3983C369.308 27.3983 370.902 28.0354 373.132 29.6284C373.451 29.9469 373.77 29.9469 374.407 29.9469L374.725 29.6284C375.044 29.3098 374.725 26.4425 374.088 21.0266L367.715 27.0797L365.166 29.6284H364.529L363.892 28.9912C363.573 28.9912 364.21 28.354 365.166 27.0797C365.803 26.1239 366.441 25.1682 366.441 23.5753V23.2567C366.441 22.6195 365.803 21.9823 365.166 21.9823C364.529 21.9823 363.573 21.9823 362.936 22.6195V22.9381C363.573 22.9381 363.892 23.5753 364.529 24.2124C363.573 24.531 362.617 23.8938 361.342 22.6195V21.9823C362.298 20.708 363.573 20.3894 365.166 20.3894C367.078 20.708 368.034 21.6637 368.034 22.9381V24.531H368.353C369.627 23.5753 371.539 21.9823 374.407 19.4337L374.088 9.87614L368.99 11.7876H367.715L367.078 11.1505V10.5133C367.078 10.1947 368.034 9.87614 369.946 9.55756L374.407 7.96464L375.363 7.64605ZM372.814 2.54871C373.132 2.54871 373.77 2.86729 375.044 3.82304C375.681 4.14163 376.319 4.46021 376.637 5.41596V5.73455L376.319 6.05313H376C374.407 5.73455 373.132 5.09738 372.176 3.82304C372.176 3.18587 372.176 2.54871 372.814 2.54871Z" fill="#C09771"/>
<path id="Vector_12" d="M398.624 11.4691H399.261C400.217 12.4248 399.898 15.2921 398.624 19.1151H398.305C397.986 19.1151 397.668 18.1593 398.305 16.5664C398.624 16.5664 398.624 15.2921 398.624 13.062L398.305 12.1062L398.624 11.4691ZM403.085 5.09737H403.403C404.041 5.09737 404.359 7.32746 404.041 12.1062V13.3806V13.6991C404.678 14.3363 405.953 14.6549 408.183 14.9735V15.2921C407.546 15.9292 406.271 16.2478 404.359 15.6106C404.041 15.6106 404.041 15.9292 404.041 16.5664C404.041 19.4337 403.722 23.2567 403.085 28.6726V30.9027L402.447 31.8584L401.81 31.5399V29.6283C401.492 29.6283 401.81 27.0797 402.447 22.3009C403.085 18.1593 403.085 13.062 402.447 6.69029V5.73454C402.447 5.41596 402.766 5.09737 403.085 5.09737ZM421.885 28.6726H427.302L427.62 28.9912V29.6283C427.302 30.2655 426.983 30.5841 426.664 30.5841H419.654H419.017L409.458 30.9027H409.139H406.59H406.271L405.634 30.2655V29.9469C405.634 29.6283 406.59 29.3098 408.82 29.3098H409.776C412.007 28.9912 416.149 28.6726 421.885 28.6726ZM423.159 4.46021H424.115C424.434 4.77879 424.434 5.09737 424.434 5.09737C424.434 5.41596 423.797 5.73454 422.203 6.05313C421.566 6.37171 420.292 6.69029 418.38 7.00888C418.698 7.32746 418.061 8.92038 416.786 11.7876V12.1062L422.203 11.7876C423.159 11.7876 423.797 12.1062 423.797 13.062C423.797 14.0177 422.841 17.2036 420.61 23.2567L419.654 25.8053C419.654 26.4425 419.017 27.0797 418.698 27.3983H418.38L418.061 27.0797L419.654 22.3009H416.149C415.831 22.3009 415.512 21.9823 415.512 21.6637V21.3452C415.512 21.0266 415.831 21.0266 416.149 20.708C416.468 20.708 417.424 21.0266 419.336 21.9823C419.654 21.9823 419.654 21.6637 419.973 20.3894L420.61 18.4779V17.8407H420.291C420.291 17.8407 419.654 17.8407 418.698 17.8407L415.83 17.5222L415.512 16.885V16.5664L416.149 16.2478C417.105 16.2478 418.698 16.2478 420.291 16.885L420.61 17.5222C420.929 17.5222 421.247 16.2478 421.885 14.0177L421.566 13.6991C420.929 13.6991 419.336 13.6991 416.786 14.3363C415.831 13.6991 415.193 14.6549 414.556 17.2036C413.919 18.7965 413.281 20.708 412.644 23.5753L412.325 23.8938H412.007C411.051 23.5753 412.007 20.3894 414.237 14.3363L416.149 7.96463C416.149 7.64605 415.512 7.64605 414.556 7.96463H412.007C411.051 7.96463 410.414 7.64605 410.414 7.32746V7.00888C410.414 6.69029 410.732 6.37171 411.051 6.37171C412.007 6.69029 413.6 7.00888 415.512 6.69029C418.38 5.73454 420.61 5.09737 423.159 4.46021Z" fill="#C09771"/>
</g>
</svg>
