<svg width="78" height="91" viewBox="0 0 78 91" fill="none" xmlns="http://www.w3.org/2000/svg">
<g id="XMLID_1_">
<path id="XMLID_2_" d="M40.9672 0L40.3115 2.51947L33.9611 1.93274L28.1973 5.17699L26.9549 7.10973L25.6088 15.3584L26.2646 25.5398L25.0221 24.2973L25.6088 23.7106L24.2973 22.9858L25.0221 21.0531H23.0894L22.4336 22.3991C22.4336 20.6734 21.3637 19.8106 19.2584 19.8106L21.1221 15.3239L19.8796 15.9796L18.5681 14.7372L19.2239 14.0124L18.6026 9.66371L21.1221 11.5274L22.3991 10.8717L21.7434 8.93894H22.3991L21.1221 7.10973L21.7779 5.76372L17.9469 6.41947V3.9L17.3602 5.2115L15.4274 4.48672L14.1159 5.2115L13.9779 4.24513C13.9779 3.3823 14.6681 2.83009 16.0487 2.55398L15.3929 1.96726L10.9062 2.55398V3.9L13.4257 3.24425L12.1142 5.76372L12.8389 7.69646C12.8389 6.52301 11.3549 5.03894 8.35221 3.20973L0.65575 2.48495L0 0.655752V0L14.0814 0.724779L40.9672 0ZM2.00177 87.5947L0.0690255 88.2504V87.5947H2.00177ZM1.38053 0.724779V1.96726H2.03628V0.724779H1.38053ZM2.5885 88.2159L5.76371 88.8717L7.07522 87.0079L7.73097 87.5947L10.2504 85.6619L12.1832 87.5947V85.6619L14.1159 88.2504L16.0487 87.0079L15.3929 83.8327H17.3257L16.6009 85.6274L19.1894 86.3522L17.8779 90.1832L16.7734 90.3212C15.4965 90.3212 14.7717 89.6309 14.6336 88.2504L12.1142 88.9062L12.8389 90.2177L2.51946 89.5619V88.2159H2.5885ZM7.07522 88.2159V89.5274H7.73097V88.2159H7.07522ZM7.73097 0.724779V1.3115H8.45575V0.724779H7.73097ZM8.42124 1.93274V2.51947H9.00796V1.93274H8.42124ZM8.42124 88.2159V88.8717H9.66371V88.2159H8.42124ZM13.4947 14.7717L15.4274 17.8779L14.1159 21.0531L13.4947 14.7717ZM16.0832 42.2788L16.6699 43.5212L22.4336 42.8655L21.7779 41.554L22.4336 40.9672H23.7106L23.0549 41.554L26.2301 44.0734L25.5743 53.6681C23.8832 53.6681 23.0549 52.8398 23.0549 51.1487L25.5743 50.4929V49.2504L23.0549 49.9062L20.5354 47.3177C20.0177 46.938 19.4655 46.731 18.9133 46.731C18.5336 46.731 18.1885 46.938 17.9469 47.3177L18.7407 48.8708L19.1203 50.7C19.1203 51.8734 18.5336 53.0814 17.3602 54.3929L19.2584 56.3256L18.6026 56.9124L19.9142 57.5681L19.2584 58.1549L19.9142 62.0548L21.1566 61.3991L20.5699 59.4664L21.1566 58.8796L26.2646 63.9876C24.9531 64.3327 24.3319 65.4026 24.3319 67.1628C25.885 69.061 26.6788 70.4416 26.6788 71.3044L26.2991 72.2018L23.7796 70.3035L24.1593 71.3389L24.4699 72.3053C24.4699 72.7885 24.2283 73.1681 23.7451 73.4787H22.4681L23.1239 69.6478H21.8469L22.5027 68.992L21.8469 65.2301L19.9487 65.8168L20.6044 65.2301L19.9487 62.5726H18.6026V63.9186H19.9142L18.6026 66.438L19.2584 67.0938L17.9469 66.438L18.6026 65.7823L16.6699 62.538L17.3947 61.9513L16.877 61.1575L16.6699 60.3292C16.6699 59.6734 17.3257 59.1557 18.6026 58.7761L16.0832 58.0513L17.3602 57.4646L16.6354 56.2221H14.1159L13.4602 45.9026L14.7026 44.6602L13.4602 43.3487L16.0832 42.2788ZM13.4947 60.8124L14.7372 61.3991V63.3318L13.4947 62.0203V60.8124ZM14.7026 32.615L16.0487 33.9265H14.1159L14.7026 32.615ZM14.1504 46.0407V46.7655H14.7372V46.0407H14.1504ZM16.6699 35.1345L16.0832 35.8593L17.3602 37.1018L16.0832 37.8265V37.1018L14.7372 35.169L15.4619 35.8938L16.6699 35.1345ZM14.7026 48.6292V49.2849H15.4274V48.6292H14.7026ZM16.0832 43.4867V44.0734H16.6699V43.4867H16.0832ZM16.0832 47.3177V47.9734H16.6699V47.3177H16.0832ZM16.0832 69.6823L16.6699 70.9938L20.5699 70.338L19.2584 74.169L21.7779 76.1017L26.2646 74.8593L25.6088 76.6885L26.9549 79.9327L23.7106 79.346V80.5885L25.6088 81.9L27.5416 81.1752V82.5212L26.9549 81.8655L25.6088 82.5212L32.0283 85.6274L30.1646 88.8717L30.7513 90.1832L27.5761 89.5274L26.9894 90.1832L28.8186 87.5947L27.5761 86.3522H26.9894L27.5761 88.2159L25.6434 87.5602C26.0575 87.1115 26.2991 86.5593 26.2991 85.869L26.092 84.6265C26.023 84.0743 25.8504 83.5566 25.6434 83.0734L24.3319 81.831H23.7451V84.3504H25.0566L23.7451 87.5256L25.0566 88.8026L21.8124 87.5256L23.7451 84.3504L21.8124 85.0062L21.1566 84.3504L21.8124 82.4867L16.7044 79.8982L17.4292 78.5867L19.3274 80.5194L18.6026 78L21.1221 78.6557L18.6026 73.5133L17.3602 74.169L16.0832 73.5133L17.3602 71.615L16.0832 69.6823ZM16.0832 88.2159V88.8717L17.9469 88.2159V87.5602L16.0832 88.2159ZM16.6699 44.7982V45.454H17.9469V44.108L16.6699 44.7982ZM16.6699 51.1487V52.4602H17.3947V51.1487H16.6699ZM16.6699 55.6354L17.3947 56.9469H18.6372L17.9814 55.6354H16.6699ZM17.9469 31.9593L18.6026 33.3053L20.5354 32.5805L19.8796 33.892L17.9469 33.3053L17.3602 33.892L17.9469 31.9593ZM17.3602 57.5681V58.1549H18.6026V57.5681H17.3602ZM17.3602 69.0265H19.2584L17.9469 70.3035L17.3602 69.0265ZM17.9469 28.7841H19.8796L18.5681 30.0956L17.9469 28.7841ZM17.9469 62.0548V62.6416H18.6026V62.0548H17.9469ZM19.9142 83.8327V85.0752L17.9814 83.8327H19.9142ZM18.6026 37.792L21.7779 38.3787L24.2973 35.8593L23.0894 31.9593L23.7451 30.0956L21.8124 30.7513L22.4681 29.4398L20.6044 30.0956L22.4681 26.2646H20.6044L19.9487 24.3319H20.6044L19.2929 22.4336L20.6044 21.7779V23.7106L23.1239 22.9858L22.4681 24.9186L23.1239 26.2301L26.2991 26.8858L25.8504 28.2664L25.7124 30.5442C25.7124 32.408 25.9195 34.8239 26.2991 37.792L24.3664 37.0672L19.9487 40.3115L18.6372 39.5867V37.792H18.6026ZM18.6026 44.7982V45.454H19.2584V44.7982H18.6026ZM18.6026 59.4318V60.0876H19.2584V59.4318H18.6026ZM18.6026 61.3991V62.0548H19.2584V61.3991H18.6026ZM19.2584 12.1832V12.8389H20.5699V12.1832H19.2584ZM19.2584 80.5885V81.1752H19.9142V80.5885H19.2584ZM19.9142 14.0814V14.8062H20.5699V14.0814H19.9142ZM19.9142 44.0734V44.7982H20.5699V44.0734H19.9142ZM20.5699 24.2973V24.9531H21.1566V24.2973H20.5699ZM20.5699 81.1752V81.9H21.1566V81.1752H20.5699ZM21.1566 12.8389V13.4257H21.8124V12.8389H21.1566ZM21.1566 44.0734V44.7982H22.4336V44.0734H21.1566ZM21.1566 45.454V46.7655L24.3319 46.0407V45.454H21.1566ZM21.1566 77.4133V78H21.8124V77.4133H21.1566ZM21.1566 78.6212V79.9327H21.8124V78.6212H21.1566ZM21.7779 80.5885V81.1752H22.4336V80.5885H21.7779ZM22.4336 4.48672V5.17699H23.0894V4.48672H22.4336ZM22.4336 27.4726V28.1973H23.0894V27.4726H22.4336ZM22.4336 28.7841V29.4398H23.0894V28.7841H22.4336ZM22.4336 61.3991V62.0548H23.0894V61.3991H22.4336ZM22.4336 78V78.6557L24.2973 78V77.4133L22.4336 78ZM22.4336 81.1752V81.9H23.7106V80.5885L22.4336 81.1752ZM22.4336 86.3522V87.0079H23.7106V86.3522H22.4336ZM23.0894 9.66371V10.2504H23.7451V9.66371H23.0894ZM23.0894 62.0548L23.7451 63.9876H24.3319L23.7451 62.0548H23.0894ZM23.0894 67.1628V67.8186H23.7451V67.1628H23.0894ZM23.0894 69.0265V69.6823H23.7451V69.0265H23.0894ZM23.7106 7.73097V8.38672H25.0221V7.73097H23.7106ZM23.7106 44.0734V44.7982H24.2973V44.0734H23.7106ZM24.2973 29.4398V30.0956H25.0221V29.4398H24.2973ZM24.2973 46.0407V47.3522H25.0221V46.0407H24.2973ZM24.2973 75.446V76.1017H25.0221V75.446H24.2973ZM25.6088 54.3929L26.2646 58.8796L25.0221 57.5681L25.6088 54.3929ZM25.0221 69.6823V70.338H25.6088V69.6823H25.0221ZM26.2646 2.51947V3.86549H26.9894V2.51947H26.2646ZM26.9549 85.0407L28.7841 86.3522H30.1301L28.1973 85.0407V83.7982L26.9549 85.0407ZM28.7841 88.2159V88.8717H29.5088V88.2159H28.7841ZM33.9611 0.724779V1.3115H35.2035V0.724779H33.9611ZM41.623 88.2159L42.2788 89.5274H44.7982H41.623V88.2159ZM47.3177 88.2159H49.2504V89.5274L48.5947 88.8717L47.3177 90.1832L46.0752 89.5274L47.3177 88.2159ZM52.5292 87.5947L53.7717 88.2504V89.5619H52.5292V87.5947ZM56.9814 83.8327L57.6372 84.4194L59.5354 83.8327V85.0752L61.3991 82.5557H63.3318L62.0894 84.4194H64.0221L64.6088 87.0079L67.7841 90.1832H63.2973L64.0221 88.2504C62.5726 88.2504 61.6752 87.8363 61.3646 87.0079L60.1221 87.5947L61.3646 88.8717L60.7779 90.1832H58.1894L59.4664 88.2504L56.2221 87.5947L55.6354 85.0752L56.9814 83.8327ZM56.2911 85.6274V86.3522H57.6372V85.6274H56.2911ZM65.2646 79.9327L67.1283 80.5885C66.8867 79.6221 67.2664 79.1734 68.3708 79.1734L69.7168 79.3805L67.7841 78.0345C72.9265 71.1318 75.4805 66.8867 75.4805 65.3336H78C78 67.0248 77.1717 67.8531 75.4805 67.8531V68.5088L77.3787 67.8531L73.5478 80.623L72.961 79.3805L69.7168 79.9672L68.4743 81.9L67.7495 81.1752L63.9876 81.9L65.2646 79.9327ZM67.8186 80.5885V81.1752H68.5434V80.5885H67.8186ZM68.5434 87.5947L70.338 88.8717V90.1832L68.5434 88.8717V87.5947ZM70.338 80.5885L72.9956 81.9L72.2708 83.1424L70.338 82.5557L71.0628 81.9L70.338 80.5885Z" fill="white"/>
</g>
</svg>
