<svg width="172" height="17" viewBox="0 0 172 17" fill="none" xmlns="http://www.w3.org/2000/svg">
<g id="XMLID_78_">
<path id="XMLID_79_" d="M0 0H7.4648V0.825597H5.676C5.4008 0.825597 5.1944 0.894399 5.0568 1.032C4.9192 1.1696 4.8504 1.4104 4.8504 1.72V14.3792C4.8504 14.6888 4.9192 14.8952 5.0912 15.0328C5.2632 15.1704 5.6072 15.2392 6.1232 15.2392H8.39359C9.59759 15.2392 10.5608 14.8264 11.352 14.0352C12.1088 13.244 12.6592 11.8336 13.0032 9.87279H13.76L13.3816 16.0648H0V15.2392H1.3072C1.7544 15.2392 2.064 15.1704 2.236 14.9984C2.408 14.8264 2.5112 14.5512 2.5112 14.1728V1.61679C2.5112 1.34159 2.4424 1.1352 2.2704 0.997597C2.1328 0.859997 1.892 0.791195 1.5824 0.791195H0V0Z" fill="white"/>
<path id="XMLID_81_" d="M20.0897 11.4552C20.0897 11.1456 20.0897 10.9049 20.0553 10.6641C20.0209 10.4233 19.9865 10.2512 19.8833 10.0792C19.7801 9.94165 19.6425 9.80405 19.4705 9.70085C19.2985 9.59765 19.0233 9.52885 18.7137 9.49445V9.21925L21.5345 9.04725V14.4824C21.5345 14.792 21.5689 15.0328 21.6033 15.2048C21.6377 15.3768 21.7409 15.5144 21.8441 15.6176C21.9473 15.7208 22.1193 15.7897 22.2913 15.8241C22.4633 15.8585 22.7041 15.8928 22.9793 15.8928V16.0992C22.5321 16.0648 22.1193 16.0648 21.6721 16.0304C21.2249 16.0304 20.8121 15.9961 20.3649 15.9961C20.0897 15.9961 19.8145 15.996 19.5393 16.0304C19.2641 16.0304 18.9889 16.0648 18.7137 16.0992V15.9272C18.9545 15.9272 19.1609 15.8928 19.3329 15.8584C19.5049 15.824 19.6425 15.7553 19.7457 15.6521C19.8489 15.5489 19.9521 15.4112 19.9865 15.2392C20.0209 15.0672 20.0553 14.8264 20.0553 14.5168V11.4552H20.0897ZM20.6401 3.61206C20.9153 3.61206 21.1561 3.71526 21.3281 3.92166C21.5345 4.12806 21.6033 4.36886 21.6033 4.64406C21.6033 4.91926 21.5001 5.16005 21.3281 5.36645C21.1217 5.57285 20.9153 5.67606 20.6401 5.67606C20.3649 5.67606 20.1241 5.57285 19.9521 5.36645C19.7457 5.16005 19.6769 4.91926 19.6769 4.64406C19.6769 4.36886 19.7801 4.12806 19.9521 3.92166C20.1241 3.71526 20.3649 3.61206 20.6401 3.61206Z" fill="white"/>
<path id="XMLID_84_" d="M27.3481 9.46006L30.0657 9.04726V10.0105C30.4097 9.76965 30.7881 9.49446 31.2009 9.25366C31.6137 9.01286 32.0609 8.90966 32.4393 8.90966C32.7833 8.90966 33.1273 8.94406 33.4369 9.04726C33.7465 9.15046 34.0217 9.28806 34.2969 9.46006C34.5377 9.66646 34.7441 9.90726 34.8817 10.2513C35.0193 10.5953 35.0881 11.0081 35.0881 11.4897V14.7577C35.0881 15.1705 35.1913 15.4457 35.4321 15.5489C35.6385 15.6865 35.9825 15.7897 36.3953 15.8585V16.0649C36.0513 16.0305 35.6385 16.0305 35.2601 15.9961C34.8473 15.9961 34.4345 15.9617 34.0217 15.9617C33.7465 15.9617 33.4713 15.9617 33.1961 15.9961C32.9209 15.9961 32.6801 16.0305 32.4393 16.0649V15.9273C32.8521 15.8585 33.1273 15.7553 33.3681 15.6177C33.5745 15.4801 33.6777 15.2393 33.6777 14.8265V11.8337C33.6777 11.2145 33.5401 10.6985 33.2649 10.3889C32.9897 10.0449 32.5769 9.87286 31.9921 9.87286C31.7857 9.87286 31.5793 9.90726 31.3385 9.97606C31.1321 10.0449 30.9257 10.1137 30.7193 10.2169C30.5473 10.3201 30.3753 10.4233 30.2721 10.5609C30.1345 10.6985 30.1001 10.8017 30.1001 10.9049V14.8265C30.1001 15.2393 30.2033 15.5145 30.4441 15.6177C30.6849 15.7553 31.0289 15.8585 31.5105 15.9273V16.1337C31.0977 16.0993 30.6849 16.0993 30.2721 16.0649C29.8593 16.0649 29.4465 16.0305 29.0337 16.0305C28.7585 16.0305 28.4833 16.0305 28.2081 16.0649C27.9329 16.0649 27.6577 16.0993 27.3825 16.1337V15.9273C27.7953 15.8585 28.1393 15.7553 28.3457 15.6177C28.5521 15.4801 28.6897 15.2393 28.6897 14.8265V10.5265C28.6897 10.1481 28.5521 9.94165 28.3113 9.83845C28.0705 9.73525 27.7609 9.70086 27.4169 9.70086V9.46006H27.3481Z" fill="white"/>
<path id="XMLID_86_" d="M50.0519 16.1336C49.7079 16.0992 49.3295 16.0992 48.9167 16.0648C48.5039 16.0648 48.0911 16.0304 47.6783 16.0304C47.4031 16.0304 47.1279 16.0304 46.8527 16.0648C46.5775 16.0648 46.3367 16.0992 46.0959 16.1336V15.9272C46.4743 15.8584 46.7839 15.7552 47.0247 15.6176C47.2311 15.48 47.3343 15.2392 47.3343 14.8264V11.8336C47.3343 11.2144 47.1967 10.6984 46.9215 10.3888C46.6463 10.0448 46.2335 9.87284 45.6487 9.87284C45.4423 9.87284 45.2359 9.90724 44.9951 9.97604C44.7543 10.0448 44.5823 10.1136 44.3759 10.2168C44.2039 10.32 44.0319 10.4232 43.9287 10.5608C43.7911 10.6984 43.7567 10.8016 43.7567 10.9048V14.8264C43.7567 15.2392 43.8599 15.5144 44.1007 15.6176C44.3415 15.7552 44.6855 15.8584 45.1671 15.9272V16.1336C44.7543 16.0992 44.3415 16.0992 43.9287 16.0648C43.5159 16.0648 43.1031 16.0304 42.6903 16.0304C42.4151 16.0304 42.1399 16.0304 41.8647 16.0648C41.5895 16.0648 41.3143 16.0992 41.0391 16.1336V15.9272C41.4519 15.8584 41.7959 15.7552 42.0023 15.6176C42.2087 15.48 42.3463 15.2392 42.3463 14.8264V5.36644C42.3463 4.91924 42.3119 4.57524 42.2775 4.33444C42.2431 4.09364 42.1743 3.88725 42.0711 3.74965C41.9679 3.61205 41.8303 3.54324 41.6583 3.50884C41.4863 3.47444 41.2455 3.44005 40.9703 3.44005V3.19924L43.7911 2.88965V10.0448C44.1351 9.80404 44.5135 9.52884 44.9263 9.28804C45.3735 9.04724 45.7863 8.94404 46.1647 8.94404C46.5087 8.94404 46.8527 8.97844 47.1623 9.08164C47.4719 9.18484 47.7471 9.32244 47.9879 9.49444C48.2287 9.70084 48.4351 9.94164 48.5727 10.2856C48.7103 10.6296 48.7791 11.0424 48.7791 11.524V14.792C48.7791 15.2048 48.8823 15.48 49.1231 15.5832C49.3295 15.7208 49.6735 15.824 50.0863 15.8928V16.1336H50.0519Z" fill="white"/>
<path id="XMLID_88_" d="M55.4184 10.664C55.5216 10.2856 55.6592 9.97602 55.8312 9.73522C56.0032 9.49442 56.2096 9.32242 56.4504 9.21922C56.6912 9.11602 56.932 9.01282 57.2416 8.97842C57.5512 8.94402 57.8608 8.94402 58.2048 8.94402C58.5144 8.94402 58.8584 8.97842 59.168 9.04722C59.4776 9.11602 59.7528 9.21922 60.028 9.39122C60.2688 9.56322 60.4752 9.76962 60.6472 10.0448C60.7848 10.32 60.888 10.6296 60.888 11.008V14.448C60.888 14.6888 60.9568 14.8952 61.06 15.0672C61.1976 15.2392 61.3696 15.3424 61.6448 15.3424C61.8856 15.3424 62.1264 15.2736 62.2984 15.136C62.5048 14.9984 62.6768 14.8608 62.8488 14.7232L63.0208 14.9296C62.8832 15.0672 62.7456 15.2048 62.5736 15.3768C62.4016 15.5488 62.2296 15.6864 62.0576 15.8584C61.8856 15.996 61.6792 16.1336 61.5072 16.2368C61.3008 16.34 61.1288 16.4088 60.9568 16.4088C60.8192 16.4088 60.716 16.3744 60.5784 16.3056C60.4408 16.2368 60.3032 16.1336 60.1656 16.0304C60.028 15.9272 59.9248 15.7896 59.8216 15.6864C59.7184 15.5488 59.6152 15.4456 59.512 15.3768C59.0992 15.652 58.652 15.8928 58.1704 16.1336C57.6888 16.34 57.2072 16.4776 56.7256 16.4776C56.4848 16.4776 56.2096 16.4432 55.9688 16.34C55.728 16.2368 55.5216 16.1336 55.3152 15.9616C55.1432 15.7896 54.9712 15.6176 54.868 15.3768C54.7648 15.1704 54.696 14.8952 54.696 14.62C54.696 14.104 54.8336 13.7256 55.1088 13.416C55.384 13.1064 55.7624 12.8656 56.2096 12.728C56.6568 12.556 57.1728 12.4528 57.7576 12.4184C58.3424 12.3496 58.8928 12.3152 59.4776 12.3152V10.7672C59.4776 10.32 59.34 9.94162 59.0648 9.70082C58.7896 9.46002 58.4112 9.32242 57.9984 9.32242C57.6888 9.32242 57.4136 9.49442 57.2416 9.80402C57.0696 10.1136 56.9664 10.492 56.9664 10.9048L55.4184 10.664ZM59.4432 12.9C59.0304 12.7968 58.6176 12.728 58.2048 12.728C57.964 12.728 57.7232 12.7624 57.4824 12.7968C57.2416 12.8656 57.0352 12.9344 56.8632 13.072C56.6912 13.2096 56.5192 13.3472 56.416 13.5536C56.3128 13.76 56.244 13.9664 56.244 14.2416C56.244 14.6544 56.3816 14.964 56.6912 15.136C56.9664 15.308 57.3104 15.4112 57.6544 15.4112C58.0672 15.4112 58.4112 15.3424 58.7552 15.1704C59.0648 14.9984 59.34 14.8608 59.4776 14.7576V12.9H59.4432Z" fill="white"/>
<path id="XMLID_91_" d="M69.5911 13.7945C69.5911 14.3105 69.7287 14.7233 70.0039 14.9985C70.2791 15.2737 70.6575 15.4113 71.1735 15.4113C71.5863 15.4113 71.9647 15.3081 72.3431 15.1361C72.7215 14.9297 73.0311 14.7577 73.2031 14.5513V10.6297C73.2031 10.4577 73.2031 10.3201 73.1687 10.1825C73.1343 10.0449 73.0999 9.94168 72.9967 9.80408C72.8935 9.70088 72.7559 9.59767 72.5495 9.52887C72.3431 9.46007 72.0679 9.39127 71.7583 9.32247V9.11608L74.6823 8.90968V14.5857C74.6823 15.0673 74.7855 15.3769 75.0263 15.5145C75.2671 15.6521 75.6111 15.7553 76.0239 15.7897V15.9617C75.5423 15.9961 75.0951 15.9961 74.6135 16.0305C74.1319 16.0305 73.6847 16.0649 73.2031 16.0993V15.1361C72.7903 15.4457 72.3087 15.7209 71.8615 15.9617C71.3799 16.2025 70.8639 16.3057 70.3135 16.3057C69.7287 16.3057 69.2127 16.1337 68.7999 15.7897C68.3871 15.4457 68.1807 14.9297 68.1807 14.2417V10.3889C68.1807 10.0105 68.0775 9.76968 67.8711 9.63208C67.6647 9.49448 67.3207 9.39127 66.7703 9.32247V9.08168L69.5911 8.84088V13.7945Z" fill="white"/>
<path id="XMLID_93_" d="M80.2552 9.80404V9.49443C80.6336 9.49443 80.9776 9.39123 81.2872 9.18483C81.5624 9.01283 81.8032 8.77203 82.044 8.49683C82.2504 8.22163 82.4224 7.91204 82.56 7.56804C82.6976 7.22404 82.8352 6.88003 82.9384 6.57043H83.2136V9.25363H85.7592V9.80404H83.2136V14.1384C83.2136 14.3104 83.2136 14.448 83.248 14.62C83.248 14.792 83.3168 14.9296 83.3512 15.0328C83.42 15.1704 83.4888 15.2392 83.592 15.3424C83.6952 15.4112 83.8328 15.4456 84.0392 15.4456C84.4176 15.4456 84.7272 15.3768 84.968 15.2048C85.2088 15.0328 85.4496 14.8264 85.7248 14.5856L85.8968 14.7576C85.6904 14.9296 85.484 15.136 85.2776 15.308C85.0712 15.5144 84.8648 15.6864 84.6584 15.824C84.452 15.996 84.2112 16.0992 83.936 16.2024C83.6952 16.3056 83.42 16.34 83.1104 16.34C82.5944 16.34 82.2504 16.168 82.044 15.8584C81.8376 15.5488 81.7688 15.1704 81.7688 14.7232V9.76963H80.2552V9.80404Z" fill="white"/>
<path id="XMLID_95_" d="M91.848 12.1777C91.848 12.8313 91.9168 13.3473 92.0888 13.7601C92.2608 14.1729 92.4672 14.5169 92.708 14.7577C92.9488 14.9985 93.224 15.1705 93.5336 15.2737C93.8088 15.3769 94.084 15.4113 94.3248 15.4113C94.8408 15.4113 95.3224 15.3425 95.7352 15.1705C96.148 14.9985 96.5608 14.7577 96.9048 14.3793L97.2144 14.6889C96.6984 15.2393 96.1824 15.6521 95.6664 15.9273C95.1504 16.2025 94.4968 16.3401 93.7744 16.3401C93.224 16.3401 92.7768 16.2369 92.364 16.0305C91.9512 15.8241 91.5728 15.5489 91.2976 15.2049C90.988 14.8609 90.7816 14.4481 90.6096 14.0009C90.4376 13.5537 90.3688 13.1065 90.3688 12.6249C90.3688 12.1433 90.4376 11.6961 90.6096 11.2489C90.7472 10.8017 90.988 10.4233 91.2976 10.0449C91.6072 9.70086 91.9512 9.42566 92.364 9.21926C92.7768 9.01286 93.2584 8.90966 93.7744 8.90966C94.7376 8.90966 95.5288 9.18486 96.1136 9.70086C96.6984 10.2169 97.0768 11.0425 97.2144 12.1433H91.848V12.1777ZM95.46 11.6273C95.4256 11.2833 95.3912 11.0081 95.3224 10.7329C95.2536 10.4577 95.1504 10.2513 95.0128 10.0793C94.8752 9.90726 94.7032 9.76965 94.4624 9.66645C94.256 9.56325 93.9464 9.52886 93.6024 9.52886C93.3272 9.52886 93.1208 9.59766 92.88 9.73526C92.6736 9.87286 92.4672 10.0449 92.3296 10.2513C92.192 10.4577 92.0544 10.6985 91.9856 10.9393C91.9168 11.1801 91.848 11.4209 91.848 11.6617H95.46V11.6273Z" fill="white"/>
<path id="XMLID_98_" d="M102.89 6.10351e-05H111.284C112.935 6.10351e-05 114.173 0.378455 115.068 1.10085C115.928 1.82325 116.375 2.71765 116.375 3.81845C116.375 4.74725 116.065 5.50406 115.446 6.15766C114.827 6.77685 113.933 7.29285 112.694 7.67125C114.208 7.98085 115.343 8.49685 116.1 9.18485C116.857 9.87285 117.235 10.7328 117.235 11.7648C117.235 12.556 117.029 13.2785 116.581 13.8977C116.134 14.5169 115.446 15.0329 114.414 15.4801C113.417 15.8929 112.282 16.1336 111.009 16.1336H102.89V15.2392H104.232C104.645 15.2392 104.92 15.1704 105.092 15.0328C105.264 14.8952 105.367 14.7577 105.367 14.5857V1.72006C105.367 1.41046 105.264 1.16966 105.092 1.03206C104.92 0.860061 104.645 0.791256 104.301 0.791256H102.89V6.10351e-05ZM107.706 7.36165H110.768C111.697 7.36165 112.453 7.08646 113.004 6.53606C113.554 5.98566 113.829 5.09125 113.829 3.81845C113.829 3.06165 113.692 2.44246 113.417 1.99526C113.142 1.54806 112.763 1.23846 112.247 1.03206C111.731 0.825661 110.871 0.722452 109.633 0.722452C108.738 0.722452 108.222 0.791254 108.016 0.928854C107.81 1.06645 107.706 1.27285 107.706 1.58245V7.36165ZM107.706 8.18725V14.3792C107.706 14.6544 107.775 14.8952 107.947 15.0328C108.119 15.1704 108.429 15.2392 108.876 15.2392H110.837C112.11 15.2392 113.073 14.964 113.692 14.3792C114.311 13.7944 114.621 12.9344 114.621 11.7304C114.621 10.6296 114.311 9.76965 113.657 9.11606C113.004 8.49686 112.144 8.15285 111.009 8.15285H107.706V8.18725Z" fill="white"/>
<path id="XMLID_102_" d="M122.498 15.9273C122.911 15.8585 123.255 15.7553 123.462 15.6177C123.668 15.4801 123.806 15.2393 123.806 14.8265V10.5265C123.806 10.1481 123.668 9.9417 123.427 9.8385C123.186 9.7353 122.877 9.7009 122.533 9.7009V9.4945L125.25 9.0817V10.1481C125.388 10.0449 125.56 9.9073 125.766 9.7697C125.973 9.5977 126.179 9.46011 126.386 9.28811C126.592 9.11611 126.833 9.0129 127.039 8.8753C127.246 8.7721 127.486 8.7033 127.693 8.7033C128.174 8.7033 128.553 8.84091 128.794 9.11611C129.034 9.39131 129.172 9.7353 129.206 10.2169L127.727 11.0081C127.762 10.9393 127.762 10.8361 127.796 10.7329C127.83 10.6297 127.83 10.5265 127.83 10.3889C127.83 10.2169 127.762 10.0449 127.658 9.9073C127.521 9.7697 127.383 9.6665 127.142 9.6665C126.97 9.6665 126.798 9.70091 126.626 9.80411C126.454 9.87291 126.282 10.0105 126.11 10.1137C125.938 10.2513 125.801 10.3889 125.663 10.5265C125.526 10.6641 125.388 10.8017 125.285 10.9049V14.8265C125.285 15.2393 125.388 15.5145 125.629 15.6177C125.87 15.7553 126.214 15.8585 126.695 15.9273V16.1337C126.282 16.0993 125.87 16.0993 125.457 16.0649C125.044 16.0649 124.631 16.0305 124.184 16.0305C123.909 16.0305 123.634 16.0305 123.358 16.0649C123.083 16.0649 122.808 16.0993 122.533 16.1337V15.9273H122.498Z" fill="white"/>
<path id="XMLID_104_" d="M134.779 11.4552C134.779 11.1456 134.779 10.9049 134.745 10.6641C134.745 10.4233 134.676 10.2512 134.573 10.0792C134.47 9.94165 134.332 9.80405 134.16 9.70085C133.988 9.59765 133.713 9.52885 133.403 9.49445V9.21925L136.224 9.04725V14.4824C136.224 14.792 136.258 15.0328 136.293 15.2048C136.327 15.3768 136.43 15.5144 136.534 15.6176C136.637 15.7208 136.809 15.7897 136.981 15.8241C137.187 15.8585 137.394 15.8928 137.669 15.8928V16.0992C137.256 16.0648 136.809 16.0648 136.362 16.0304C135.914 16.0304 135.502 15.9961 135.054 15.9961C134.779 15.9961 134.504 15.996 134.229 16.0304C133.954 16.0304 133.678 16.0648 133.403 16.0992V15.9272C133.644 15.9272 133.85 15.8928 134.022 15.8584C134.194 15.824 134.332 15.7553 134.435 15.6521C134.538 15.5489 134.642 15.4112 134.676 15.2392C134.71 15.0672 134.745 14.8264 134.745 14.5168V11.4552H134.779ZM135.295 3.61206C135.57 3.61206 135.777 3.71526 135.983 3.92166C136.19 4.12806 136.258 4.36886 136.258 4.64406C136.258 4.91926 136.155 5.16005 135.983 5.36645C135.777 5.57285 135.57 5.67606 135.295 5.67606C135.02 5.67606 134.779 5.57285 134.607 5.36645C134.401 5.16005 134.332 4.91926 134.332 4.64406C134.332 4.36886 134.435 4.12806 134.607 3.92166C134.814 3.71526 135.02 3.61206 135.295 3.61206Z" fill="white"/>
<path id="XMLID_107_" d="M149.778 14.2073C149.778 14.5169 149.778 14.7921 149.846 14.9985C149.881 15.2049 149.95 15.3769 150.053 15.5145C150.156 15.6521 150.328 15.7209 150.534 15.7897C150.741 15.8241 151.016 15.8585 151.326 15.8585V16.0649C150.81 16.0649 150.328 16.0649 149.846 16.0993C149.365 16.0993 148.849 16.1337 148.333 16.1681V15.4801C148.058 15.7209 147.645 15.9273 147.129 16.1337C146.613 16.3057 146.062 16.4089 145.478 16.4089C144.962 16.4089 144.514 16.3057 144.102 16.1337C143.689 15.9273 143.345 15.6865 143.035 15.3425C142.76 14.9985 142.519 14.6201 142.347 14.2073C142.175 13.7601 142.106 13.3129 142.106 12.8657C142.106 12.3153 142.21 11.7993 142.416 11.3177C142.622 10.8361 142.898 10.4577 143.242 10.0793C143.586 9.73526 143.998 9.46007 144.48 9.28807C144.962 9.08167 145.478 9.01286 146.028 9.01286C146.441 9.01286 146.819 9.08166 147.232 9.21926C147.61 9.35686 147.989 9.52886 148.333 9.76966V4.95367C148.333 4.64407 148.298 4.40326 148.264 4.23127C148.23 4.05927 148.126 3.88727 148.023 3.78407C147.886 3.68087 147.748 3.57767 147.542 3.54327C147.335 3.50887 147.094 3.44007 146.785 3.44007V3.23367L149.812 2.92407V14.2073H149.778ZM148.333 10.9393C148.298 10.7673 148.195 10.5953 148.058 10.4233C147.92 10.2513 147.748 10.0793 147.542 9.94166C147.335 9.80406 147.094 9.66646 146.819 9.59766C146.544 9.49446 146.303 9.46007 146.028 9.46007C145.615 9.46007 145.237 9.56326 144.962 9.73526C144.686 9.90726 144.446 10.1481 144.239 10.4577C144.067 10.7673 143.93 11.1113 143.826 11.4897C143.723 11.8681 143.689 12.2465 143.689 12.6249C143.689 13.0033 143.723 13.3817 143.826 13.7601C143.895 14.1385 144.033 14.4825 144.239 14.7921C144.411 15.1017 144.652 15.3425 144.962 15.5145C145.237 15.6865 145.615 15.7897 146.028 15.7897C146.303 15.7897 146.578 15.7553 146.854 15.6521C147.129 15.5489 147.335 15.4457 147.576 15.3425C147.782 15.2049 147.954 15.0673 148.092 14.9297C148.23 14.7921 148.333 14.6545 148.367 14.5513V10.9393H148.333Z" fill="white"/>
<path id="XMLID_110_" d="M156.417 10.664C156.52 10.2856 156.657 9.97602 156.829 9.73522C157.001 9.49442 157.208 9.32242 157.449 9.21922C157.69 9.11602 157.93 9.01282 158.24 8.97842C158.55 8.94402 158.859 8.94402 159.169 8.94402C159.478 8.94402 159.822 8.97842 160.132 9.04722C160.441 9.11602 160.717 9.21922 160.992 9.39122C161.233 9.56322 161.439 9.76962 161.611 10.0448C161.749 10.32 161.852 10.6296 161.852 11.008V14.448C161.852 14.6888 161.921 14.8952 162.024 15.0672C162.161 15.2392 162.334 15.3424 162.609 15.3424C162.85 15.3424 163.09 15.2736 163.262 15.136C163.469 14.9984 163.641 14.8608 163.813 14.7232L163.985 14.9296C163.847 15.0672 163.709 15.2048 163.537 15.3768C163.365 15.5488 163.193 15.6864 163.021 15.8584C162.849 15.996 162.643 16.1336 162.437 16.2368C162.265 16.34 162.058 16.4088 161.886 16.4088C161.749 16.4088 161.645 16.3744 161.508 16.3056C161.37 16.2368 161.233 16.1336 161.095 16.0304C160.957 15.9272 160.854 15.7896 160.751 15.6864C160.648 15.5488 160.545 15.4456 160.441 15.3768C160.029 15.652 159.581 15.8928 159.1 16.1336C158.618 16.34 158.137 16.4776 157.655 16.4776C157.38 16.4776 157.139 16.4432 156.898 16.34C156.658 16.2368 156.451 16.1336 156.245 15.9616C156.073 15.7896 155.901 15.6176 155.797 15.3768C155.694 15.1704 155.625 14.8952 155.625 14.62C155.625 14.104 155.763 13.7256 156.038 13.416C156.314 13.1064 156.692 12.8656 157.139 12.728C157.586 12.556 158.102 12.4528 158.687 12.4184C159.272 12.3496 159.822 12.3152 160.407 12.3152V10.7672C160.407 10.32 160.27 9.94162 159.994 9.70082C159.719 9.46002 159.341 9.32242 158.928 9.32242C158.618 9.32242 158.343 9.49442 158.171 9.80402C157.999 10.1136 157.896 10.492 157.896 10.9048L156.417 10.664ZM160.441 12.9C160.029 12.7968 159.616 12.728 159.203 12.728C158.962 12.728 158.722 12.7624 158.481 12.7968C158.24 12.8656 158.033 12.9344 157.861 13.072C157.689 13.2096 157.518 13.3472 157.414 13.5536C157.311 13.76 157.242 13.9664 157.242 14.2416C157.242 14.6544 157.38 14.964 157.689 15.136C157.965 15.308 158.309 15.4112 158.653 15.4112C159.031 15.4112 159.409 15.3424 159.719 15.1704C160.063 14.9984 160.269 14.8608 160.441 14.7576V12.9Z" fill="white"/>
<path id="XMLID_113_" d="M167.7 15.9272C168.01 15.8928 168.25 15.8584 168.422 15.7896C168.629 15.7208 168.766 15.6176 168.87 15.48C168.973 15.3424 169.007 15.1704 169.042 14.9296C169.076 14.6888 169.076 14.4136 169.076 14.0352V4.74722C169.076 4.26562 169.007 3.92162 168.87 3.74962C168.732 3.54322 168.354 3.47442 167.803 3.47442V3.19922L170.521 2.85522V14.0008C170.521 14.3448 170.521 14.6544 170.555 14.8952C170.59 15.136 170.624 15.308 170.762 15.4456C170.865 15.5832 171.002 15.6864 171.209 15.7552C171.415 15.824 171.656 15.8584 172 15.8928V16.0992C171.656 16.0648 171.278 16.0648 170.899 16.0304C170.521 16.0304 170.142 15.996 169.764 15.996C169.42 15.996 169.042 15.996 168.732 16.0304C168.388 16.0304 168.044 16.0648 167.7 16.0992V15.9272Z" fill="white"/>
</g>
</svg>
