<svg width="15" height="15" viewBox="0 0 15 15" fill="none" xmlns="http://www.w3.org/2000/svg">
<path id="Vector" d="M0.616319 4.76504L0.307724 5.0801L0 4.76504L0.307724 4.44998L0.616319 4.76504ZM4.97501 15C4.85941 15 4.74854 14.9531 4.6668 14.8697C4.58506 14.7862 4.53914 14.673 4.53914 14.555C4.53914 14.437 4.58506 14.3238 4.6668 14.2403C4.74854 14.1569 4.85941 14.11 4.97501 14.11V15ZM4.66641 9.53008L0.307724 5.0801L0.924914 4.44998L5.28361 8.89996L4.66641 9.53008ZM0.307724 4.44998L4.66641 0L5.28361 0.630118L0.924914 5.0801L0.307724 4.44998ZM0.616319 4.32004H9.76957V5.21004H0.616319V4.32004ZM9.76957 15H4.97501V14.11H9.76957V15ZM15 9.66002C15 11.0763 14.4489 12.4345 13.468 13.436C12.4871 14.4374 11.1568 15 9.76957 15V14.11C10.9256 14.11 12.0342 13.6412 12.8516 12.8066C13.669 11.9721 14.1283 10.8402 14.1283 9.66002H15ZM9.76957 4.32004C11.1568 4.32004 12.4871 4.88265 13.468 5.88409C14.4489 6.88553 15 8.24377 15 9.66002H14.1283C14.1283 8.47981 13.669 7.34794 12.8516 6.51341C12.0342 5.67887 10.9256 5.21004 9.76957 5.21004V4.32004Z" fill="#C09771"/>
</svg>
