<svg width="21" height="15" viewBox="0 0 21 15" fill="none" xmlns="http://www.w3.org/2000/svg">
<path id="Vector" d="M1.96875 0C0.881836 0 0 0.839844 0 1.875C0 2.46484 0.291211 3.01953 0.7875 3.375L9.31875 9.46875C10.0201 9.96875 10.9799 9.96875 11.6812 9.46875L20.2125 3.375C20.7088 3.01953 21 2.46484 21 1.875C21 0.839844 20.1182 0 19.0312 0H1.96875ZM0 5.15625V12.5C0 13.8789 1.17715 15 2.625 15H18.375C19.8229 15 21 13.8789 21 12.5V5.15625L12.8625 10.9688C11.4639 11.9688 9.53613 11.9688 8.1375 10.9688L0 5.15625Z" fill="white"/>
</svg>
