<svg width="221" height="22" viewBox="0 0 221 22" fill="none" xmlns="http://www.w3.org/2000/svg">
<g id="XMLID_78_">
<path id="XMLID_79_" d="M0 0H9.5914V1.0608H7.293C6.9394 1.0608 6.6742 1.1492 6.4974 1.326C6.3206 1.5028 6.2322 1.8122 6.2322 2.21V18.4756C6.2322 18.8734 6.3206 19.1386 6.5416 19.3154C6.7626 19.4922 7.2046 19.5806 7.8676 19.5806H10.7848C12.3318 19.5806 13.5694 19.0502 14.586 18.0336C15.5584 17.017 16.2656 15.2048 16.7076 12.6854H17.68L17.1938 20.6414H0V19.5806H1.6796C2.2542 19.5806 2.652 19.4922 2.873 19.2712C3.094 19.0502 3.2266 18.6966 3.2266 18.2104V2.07739C3.2266 1.72379 3.1382 1.4586 2.9172 1.2818C2.7404 1.105 2.431 1.01659 2.0332 1.01659H0V0Z" fill="white"/>
<path id="XMLID_81_" d="M25.813 14.7192C25.813 14.3214 25.813 14.012 25.7688 13.7026C25.7246 13.3932 25.6804 13.1722 25.5478 12.9512C25.4152 12.7744 25.2384 12.5976 25.0174 12.465C24.7964 12.3324 24.4428 12.244 24.045 12.1998V11.8462L27.6694 11.6252V18.6088C27.6694 19.0066 27.7136 19.316 27.7578 19.537C27.802 19.758 27.9346 19.9348 28.0672 20.0674C28.1998 20.2 28.4208 20.2884 28.6418 20.3326C28.8628 20.3768 29.1722 20.421 29.5258 20.421V20.6862C28.9512 20.642 28.4208 20.642 27.8462 20.5978C27.2716 20.5978 26.7412 20.5536 26.1666 20.5536C25.813 20.5536 25.4594 20.5536 25.1058 20.5978C24.7522 20.5978 24.3986 20.642 24.045 20.6862V20.4652C24.3544 20.4652 24.6196 20.421 24.8406 20.3768C25.0616 20.3326 25.2384 20.2442 25.371 20.1116C25.5036 19.979 25.6362 19.8022 25.6804 19.5812C25.7246 19.3602 25.7688 19.0508 25.7688 18.653V14.7192H25.813ZM26.5202 4.6416C26.8738 4.6416 27.1832 4.7742 27.4042 5.0394C27.6694 5.3046 27.7578 5.614 27.7578 5.9676C27.7578 6.3212 27.6252 6.63059 27.4042 6.89579C27.139 7.16099 26.8738 7.2936 26.5202 7.2936C26.1666 7.2936 25.8572 7.16099 25.6362 6.89579C25.371 6.63059 25.2826 6.3212 25.2826 5.9676C25.2826 5.614 25.4152 5.3046 25.6362 5.0394C25.8572 4.7742 26.1666 4.6416 26.5202 4.6416Z" fill="white"/>
<path id="XMLID_84_" d="M35.1391 12.1554L38.6309 11.625V12.8626C39.0729 12.5532 39.5591 12.1996 40.0895 11.8902C40.6199 11.5808 41.1945 11.4482 41.6807 11.4482C42.1227 11.4482 42.5647 11.4924 42.9625 11.625C43.3603 11.7576 43.7139 11.9344 44.0675 12.1554C44.3769 12.4206 44.6421 12.73 44.8189 13.172C44.9957 13.614 45.0841 14.1444 45.0841 14.7632V18.9622C45.0841 19.4926 45.2167 19.8462 45.5261 19.9788C45.7913 20.1556 46.2333 20.2882 46.7637 20.3766V20.6418C46.3217 20.5976 45.7913 20.5976 45.3051 20.5534C44.7747 20.5534 44.2443 20.5092 43.7139 20.5092C43.3603 20.5092 43.0067 20.5092 42.6531 20.5534C42.2995 20.5534 41.9901 20.5976 41.6807 20.6418V20.465C42.2111 20.3766 42.5647 20.244 42.8741 20.0672C43.1393 19.8904 43.2719 19.581 43.2719 19.0506V15.2052C43.2719 14.4096 43.0951 13.7466 42.7415 13.3488C42.3879 12.9068 41.8575 12.6858 41.1061 12.6858C40.8409 12.6858 40.5757 12.73 40.2663 12.8184C40.0011 12.9068 39.7359 12.9952 39.4707 13.1278C39.2497 13.2604 39.0287 13.393 38.8961 13.5698C38.7193 13.7466 38.6751 13.8792 38.6751 14.0118V19.0506C38.6751 19.581 38.8077 19.9346 39.1171 20.0672C39.4265 20.244 39.8685 20.3766 40.4873 20.465V20.7302C39.9569 20.686 39.4265 20.686 38.8961 20.6418C38.3657 20.6418 37.8353 20.5976 37.3049 20.5976C36.9513 20.5976 36.5977 20.5976 36.2441 20.6418C35.8905 20.6418 35.5369 20.686 35.1833 20.7302V20.465C35.7137 20.3766 36.1557 20.244 36.4209 20.0672C36.6861 19.8904 36.8629 19.581 36.8629 19.0506V13.5256C36.8629 13.0394 36.6861 12.7742 36.3767 12.6416C36.0673 12.509 35.6695 12.4648 35.2275 12.4648V12.1554H35.1391Z" fill="white"/>
<path id="XMLID_86_" d="M64.3109 20.7309C63.8689 20.6867 63.3827 20.6867 62.8523 20.6425C62.3219 20.6425 61.7916 20.5983 61.2612 20.5983C60.9076 20.5983 60.5539 20.5983 60.2003 20.6425C59.8467 20.6425 59.5373 20.6867 59.2279 20.7309V20.4657C59.7141 20.3773 60.1119 20.2447 60.4213 20.0679C60.6865 19.8911 60.8192 19.5817 60.8192 19.0513V15.2059C60.8192 14.4103 60.6423 13.7473 60.2887 13.3495C59.9351 12.9075 59.4047 12.6865 58.6533 12.6865C58.3881 12.6865 58.123 12.7307 57.8136 12.8191C57.5042 12.9075 57.2832 12.9959 57.018 13.1285C56.797 13.2611 56.5759 13.3937 56.4433 13.5705C56.2665 13.7473 56.2223 13.8799 56.2223 14.0125V19.0513C56.2223 19.5817 56.3549 19.9353 56.6643 20.0679C56.9737 20.2447 57.4158 20.3773 58.0346 20.4657V20.7309C57.5042 20.6867 56.9737 20.6867 56.4433 20.6425C55.9129 20.6425 55.3826 20.5983 54.8522 20.5983C54.4986 20.5983 54.1449 20.5983 53.7913 20.6425C53.4377 20.6425 53.0842 20.6867 52.7306 20.7309V20.4657C53.261 20.3773 53.703 20.2447 53.9682 20.0679C54.2334 19.8911 54.4102 19.5817 54.4102 19.0513V6.89626C54.4102 6.32166 54.366 5.87966 54.3218 5.57026C54.2776 5.26086 54.1892 4.99567 54.0566 4.81887C53.924 4.64207 53.7472 4.55366 53.5262 4.50946C53.3052 4.46526 52.9958 4.42107 52.6422 4.42107V4.11166L56.2666 3.71387V12.9075C56.7086 12.5981 57.1948 12.2445 57.7252 11.9351C58.2998 11.6257 58.8301 11.4931 59.3163 11.4931C59.7583 11.4931 60.2004 11.5373 60.5982 11.6699C60.996 11.8025 61.3495 11.9793 61.6589 12.2003C61.9683 12.4655 62.2335 12.7749 62.4103 13.2169C62.5871 13.6589 62.6755 14.1893 62.6755 14.8081V19.0071C62.6755 19.5375 62.8081 19.8911 63.1175 20.0237C63.3827 20.2005 63.8248 20.3331 64.3552 20.4215V20.7309H64.3109Z" fill="white"/>
<path id="XMLID_88_" d="M71.2062 13.7032C71.3388 13.217 71.5156 12.8192 71.7366 12.5098C71.9576 12.2004 72.2228 11.9794 72.5322 11.8468C72.8416 11.7142 73.151 11.5816 73.5488 11.5374C73.9466 11.4932 74.3444 11.4932 74.7864 11.4932C75.1842 11.4932 75.6262 11.5374 76.024 11.6258C76.4218 11.7142 76.7754 11.8468 77.129 12.0678C77.4384 12.2888 77.7036 12.554 77.9246 12.9076C78.1014 13.2612 78.234 13.659 78.234 14.1452V18.5652C78.234 18.8746 78.3224 19.1398 78.455 19.3608C78.6318 19.5818 78.8528 19.7144 79.2064 19.7144C79.5158 19.7144 79.8252 19.626 80.0462 19.4492C80.3114 19.2724 80.5324 19.0956 80.7534 18.9188L80.9744 19.184C80.7976 19.3608 80.6208 19.5376 80.3998 19.7586C80.1788 19.9796 79.9578 20.1564 79.7368 20.3773C79.5158 20.5542 79.2506 20.731 79.0296 20.8636C78.7644 20.9962 78.5434 21.0846 78.3224 21.0846C78.1456 21.0846 78.013 21.0404 77.8362 20.952C77.6594 20.8636 77.4826 20.731 77.3058 20.5984C77.129 20.4658 76.9964 20.2889 76.8638 20.1564C76.7312 19.9796 76.5986 19.847 76.466 19.7586C75.9356 20.1122 75.361 20.4216 74.7422 20.731C74.1234 20.9962 73.5046 21.173 72.8858 21.173C72.5764 21.173 72.2228 21.1288 71.9134 20.9962C71.604 20.8636 71.3388 20.731 71.0736 20.51C70.8526 20.289 70.6316 20.068 70.499 19.7586C70.3664 19.4934 70.278 19.1398 70.278 18.7862C70.278 18.1232 70.4548 17.637 70.8084 17.2392C71.162 16.8414 71.6482 16.532 72.2228 16.3552C72.7974 16.1342 73.4604 16.0016 74.2118 15.9574C74.9632 15.869 75.6704 15.8248 76.4218 15.8248V13.8358C76.4218 13.2612 76.245 12.775 75.8914 12.4656C75.5378 12.1562 75.0516 11.9794 74.5212 11.9794C74.1234 11.9794 73.7698 12.2004 73.5488 12.5982C73.3278 12.996 73.1952 13.4822 73.1952 14.0126L71.2062 13.7032ZM76.3776 16.5762C75.8472 16.4436 75.3168 16.3552 74.7864 16.3552C74.477 16.3552 74.1676 16.3994 73.8582 16.4436C73.5488 16.532 73.2836 16.6204 73.0626 16.7972C72.8416 16.974 72.6206 17.1508 72.488 17.416C72.3554 17.6812 72.267 17.9464 72.267 18.3C72.267 18.8304 72.4438 19.2282 72.8416 19.4492C73.1952 19.6702 73.6372 19.8028 74.0792 19.8028C74.6096 19.8028 75.0516 19.7144 75.4936 19.4934C75.8914 19.2724 76.245 19.0956 76.4218 18.963V16.5762H76.3776Z" fill="white"/>
<path id="XMLID_91_" d="M89.4166 17.7251C89.4166 18.3881 89.5934 18.9185 89.947 19.2721C90.3006 19.6257 90.7868 19.8025 91.4498 19.8025C91.9802 19.8025 92.4664 19.67 92.9526 19.449C93.4388 19.1838 93.8366 18.9628 94.0576 18.6976V13.6588C94.0576 13.4378 94.0576 13.2609 94.0134 13.0841C93.9692 12.9073 93.925 12.7748 93.7924 12.598C93.6598 12.4654 93.483 12.3328 93.2178 12.2444C92.9526 12.156 92.599 12.0675 92.2012 11.9791V11.714L95.9582 11.4488V18.7418C95.9582 19.3606 96.0908 19.7583 96.4002 19.9351C96.7096 20.1119 97.1516 20.2446 97.682 20.2888V20.5098C97.0632 20.554 96.4886 20.5539 95.8698 20.5981C95.251 20.5981 94.6764 20.6423 94.0576 20.6865V19.449C93.5272 19.8468 92.9084 20.2004 92.3338 20.5098C91.715 20.8192 91.052 20.9518 90.3448 20.9518C89.5934 20.9518 88.9304 20.7308 88.4 20.2888C87.8696 19.8468 87.6044 19.1838 87.6044 18.2998V13.3494C87.6044 12.8632 87.4718 12.5538 87.2066 12.377C86.9414 12.2002 86.4994 12.0675 85.7922 11.9791V11.6698L89.4166 11.3604V17.7251Z" fill="white"/>
<path id="XMLID_93_" d="M103.119 12.5982V12.2004C103.605 12.2004 104.047 12.0678 104.445 11.8026C104.798 11.5816 105.108 11.2722 105.417 10.9186C105.682 10.565 105.903 10.1672 106.08 9.72517C106.257 9.28317 106.434 8.84116 106.566 8.44336H106.92V11.891H110.191V12.5982H106.92V18.1674C106.92 18.3884 106.92 18.5652 106.964 18.7862C106.964 19.0072 107.053 19.184 107.097 19.3166C107.185 19.4934 107.274 19.5818 107.406 19.7144C107.539 19.8028 107.716 19.847 107.981 19.847C108.467 19.847 108.865 19.7586 109.174 19.5376C109.484 19.3166 109.793 19.0514 110.147 18.742L110.368 18.963C110.102 19.184 109.837 19.4492 109.572 19.6702C109.307 19.9354 109.042 20.1564 108.776 20.3332C108.511 20.5542 108.202 20.6868 107.848 20.8194C107.539 20.952 107.185 20.9962 106.787 20.9962C106.124 20.9962 105.682 20.7752 105.417 20.3774C105.152 19.9796 105.064 19.4934 105.064 18.9188V12.554H103.119V12.5982Z" fill="white"/>
<path id="XMLID_95_" d="M118.014 15.6472C118.014 16.487 118.102 17.15 118.323 17.6804C118.544 18.2108 118.81 18.6528 119.119 18.9622C119.428 19.2716 119.782 19.4926 120.18 19.6252C120.533 19.7578 120.887 19.802 121.196 19.802C121.859 19.802 122.478 19.7136 123.009 19.4926C123.539 19.2716 124.069 18.9622 124.511 18.476L124.909 18.8738C124.246 19.581 123.583 20.1114 122.92 20.465C122.257 20.8186 121.417 20.9954 120.489 20.9954C119.782 20.9954 119.207 20.8628 118.677 20.5976C118.147 20.3324 117.66 19.9788 117.307 19.5368C116.909 19.0948 116.644 18.5644 116.423 17.9898C116.202 17.4152 116.113 16.8406 116.113 16.2218C116.113 15.603 116.202 15.0284 116.423 14.4538C116.6 13.8792 116.909 13.393 117.307 12.9068C117.705 12.4648 118.147 12.1112 118.677 11.846C119.207 11.5808 119.826 11.4482 120.489 11.4482C121.727 11.4482 122.743 11.8018 123.495 12.4648C124.246 13.1278 124.732 14.1886 124.909 15.603H118.014V15.6472ZM122.655 14.94C122.611 14.498 122.567 14.1444 122.478 13.7908C122.39 13.4372 122.257 13.172 122.08 12.951C121.904 12.73 121.683 12.5532 121.373 12.4206C121.108 12.288 120.71 12.2438 120.268 12.2438C119.915 12.2438 119.649 12.3322 119.34 12.509C119.075 12.6858 118.81 12.9068 118.633 13.172C118.456 13.4372 118.279 13.7466 118.191 14.056C118.102 14.3654 118.014 14.6748 118.014 14.9842H122.655V14.94Z" fill="white"/>
<path id="XMLID_98_" d="M132.202 0H142.987C145.109 0 146.7 0.486192 147.849 1.41439C148.954 2.34259 149.529 3.49179 149.529 4.90619C149.529 6.09959 149.131 7.072 148.335 7.9118C147.54 8.70739 146.39 9.37039 144.799 9.85659C146.744 10.2544 148.203 10.9174 149.175 11.8014C150.147 12.6854 150.634 13.7904 150.634 15.1164C150.634 16.133 150.368 17.0612 149.794 17.8568C149.219 18.6524 148.335 19.3154 147.009 19.89C145.727 20.4204 144.269 20.7298 142.633 20.7298H132.202V19.5806H133.926C134.456 19.5806 134.81 19.4922 135.031 19.3154C135.252 19.1386 135.385 18.9618 135.385 18.7408V2.21C135.385 1.8122 135.252 1.5028 135.031 1.326C134.81 1.105 134.456 1.01659 134.014 1.01659H132.202V0ZM138.39 9.45879H142.324C143.517 9.45879 144.49 9.1052 145.197 8.398C145.904 7.6908 146.258 6.54159 146.258 4.90619C146.258 3.93379 146.081 3.13819 145.727 2.56359C145.374 1.98899 144.888 1.5912 144.225 1.326C143.562 1.0608 142.457 0.928189 140.865 0.928189C139.716 0.928189 139.053 1.01659 138.788 1.19339C138.523 1.37019 138.39 1.63539 138.39 2.03319V9.45879ZM138.39 10.5196V18.4756C138.39 18.8292 138.479 19.1386 138.7 19.3154C138.921 19.4922 139.318 19.5806 139.893 19.5806H142.412C144.048 19.5806 145.285 19.227 146.081 18.4756C146.877 17.7242 147.274 16.6192 147.274 15.0722C147.274 13.6578 146.877 12.5528 146.037 11.713C145.197 10.9174 144.092 10.4754 142.633 10.4754H138.39V10.5196Z" fill="white"/>
<path id="XMLID_102_" d="M157.396 20.4656C157.927 20.3772 158.369 20.2446 158.634 20.0678C158.899 19.891 159.076 19.5816 159.076 19.0512V13.5262C159.076 13.04 158.899 12.7748 158.59 12.6422C158.28 12.5096 157.882 12.4654 157.44 12.4654V12.2002L160.932 11.6698V13.04C161.109 12.9074 161.33 12.7306 161.595 12.5538C161.86 12.3328 162.126 12.156 162.391 11.935C162.656 11.714 162.965 11.5814 163.231 11.4046C163.496 11.272 163.805 11.1836 164.07 11.1836C164.689 11.1836 165.175 11.3604 165.485 11.714C165.794 12.0676 165.971 12.5096 166.015 13.1284L164.115 14.145C164.159 14.0566 164.159 13.924 164.203 13.7914C164.247 13.6588 164.247 13.5262 164.247 13.3494C164.247 13.1284 164.159 12.9074 164.026 12.7306C163.849 12.5538 163.673 12.4212 163.363 12.4212C163.142 12.4212 162.921 12.4654 162.7 12.598C162.479 12.6864 162.258 12.8632 162.037 12.9958C161.816 13.1726 161.639 13.3494 161.463 13.5262C161.286 13.703 161.109 13.8798 160.976 14.0124V19.0512C160.976 19.5816 161.109 19.9352 161.418 20.0678C161.728 20.2446 162.17 20.3772 162.789 20.4656V20.7308C162.258 20.6866 161.728 20.6866 161.197 20.6424C160.667 20.6424 160.137 20.5982 159.562 20.5982C159.208 20.5982 158.855 20.5982 158.501 20.6424C158.148 20.6424 157.794 20.6866 157.44 20.7308V20.4656H157.396Z" fill="white"/>
<path id="XMLID_104_" d="M173.176 14.7192C173.176 14.3214 173.176 14.012 173.132 13.7026C173.132 13.3932 173.043 13.1722 172.911 12.9512C172.778 12.7744 172.601 12.5976 172.38 12.465C172.159 12.3324 171.806 12.244 171.408 12.1998V11.8462L175.032 11.6252V18.6088C175.032 19.0066 175.076 19.316 175.121 19.537C175.165 19.758 175.297 19.9348 175.43 20.0674C175.563 20.2 175.784 20.2884 176.005 20.3326C176.27 20.3768 176.535 20.421 176.889 20.421V20.6862C176.358 20.642 175.784 20.642 175.209 20.5978C174.634 20.5978 174.104 20.5536 173.529 20.5536C173.176 20.5536 172.822 20.5536 172.469 20.5978C172.115 20.5978 171.761 20.642 171.408 20.6862V20.4652C171.717 20.4652 171.982 20.421 172.203 20.3768C172.424 20.3326 172.601 20.2442 172.734 20.1116C172.866 19.979 172.999 19.8022 173.043 19.5812C173.087 19.3602 173.132 19.0508 173.132 18.653V14.7192H173.176ZM173.839 4.6416C174.192 4.6416 174.458 4.7742 174.723 5.0394C174.988 5.3046 175.076 5.614 175.076 5.9676C175.076 6.3212 174.944 6.63059 174.723 6.89579C174.458 7.16099 174.192 7.2936 173.839 7.2936C173.485 7.2936 173.176 7.16099 172.955 6.89579C172.69 6.63059 172.601 6.3212 172.601 5.9676C172.601 5.614 172.734 5.3046 172.955 5.0394C173.22 4.7742 173.485 4.6416 173.839 4.6416Z" fill="white"/>
<path id="XMLID_107_" d="M192.447 18.2544C192.447 18.6522 192.447 19.0058 192.535 19.271C192.579 19.5362 192.668 19.7572 192.8 19.934C192.933 20.1108 193.154 20.1992 193.419 20.2876C193.684 20.3318 194.038 20.376 194.436 20.376V20.6412C193.773 20.6412 193.154 20.6412 192.535 20.6854C191.916 20.6854 191.253 20.7296 190.59 20.7738V19.8898C190.237 20.1992 189.706 20.4644 189.043 20.7296C188.38 20.9506 187.673 21.0832 186.922 21.0832C186.259 21.0832 185.684 20.9506 185.154 20.7296C184.623 20.4644 184.181 20.155 183.784 19.713C183.43 19.271 183.121 18.7848 182.9 18.2544C182.679 17.6798 182.59 17.1052 182.59 16.5306C182.59 15.8234 182.723 15.1604 182.988 14.5416C183.253 13.9228 183.607 13.4366 184.049 12.9504C184.491 12.5084 185.021 12.1548 185.64 11.9338C186.259 11.6686 186.922 11.5802 187.629 11.5802C188.159 11.5802 188.646 11.6686 189.176 11.8454C189.662 12.0222 190.148 12.2432 190.59 12.5526V6.36463C190.59 5.96683 190.546 5.65743 190.502 5.43643C190.458 5.21543 190.325 4.99444 190.193 4.86184C190.016 4.72924 189.839 4.59663 189.574 4.55243C189.309 4.50823 188.999 4.41984 188.601 4.41984V4.15463L192.491 3.75684V18.2544H192.447ZM190.59 14.0554C190.546 13.8344 190.414 13.6134 190.237 13.3924C190.06 13.1714 189.839 12.9504 189.574 12.7736C189.309 12.5968 188.999 12.42 188.646 12.3316C188.292 12.199 187.983 12.1548 187.629 12.1548C187.099 12.1548 186.612 12.2874 186.259 12.5084C185.905 12.7294 185.596 13.0388 185.331 13.4366C185.11 13.8344 184.933 14.2764 184.8 14.7626C184.668 15.2488 184.623 15.735 184.623 16.2212C184.623 16.7074 184.668 17.1936 184.8 17.6798C184.889 18.166 185.065 18.608 185.331 19.0058C185.552 19.4036 185.861 19.713 186.259 19.934C186.612 20.155 187.099 20.2876 187.629 20.2876C187.983 20.2876 188.336 20.2434 188.69 20.1108C189.043 19.9782 189.309 19.8456 189.618 19.713C189.883 19.5362 190.104 19.3594 190.281 19.1826C190.458 19.0058 190.59 18.829 190.635 18.6964V14.0554H190.59Z" fill="white"/>
<path id="XMLID_110_" d="M200.977 13.7032C201.11 13.217 201.287 12.8192 201.508 12.5098C201.729 12.2004 201.994 11.9794 202.303 11.8468C202.613 11.7142 202.922 11.5816 203.32 11.5374C203.718 11.4932 204.115 11.4932 204.513 11.4932C204.911 11.4932 205.353 11.5374 205.751 11.6258C206.149 11.7142 206.502 11.8468 206.856 12.0678C207.165 12.2888 207.43 12.554 207.651 12.9076C207.828 13.2612 207.961 13.659 207.961 14.1452V18.5652C207.961 18.8746 208.049 19.1398 208.182 19.3608C208.359 19.5818 208.58 19.7144 208.933 19.7144C209.243 19.7144 209.552 19.626 209.773 19.4492C210.038 19.2724 210.259 19.0956 210.48 18.9188L210.701 19.184C210.524 19.3608 210.348 19.5376 210.127 19.7586C209.906 19.9796 209.685 20.1564 209.464 20.3773C209.243 20.5542 208.977 20.731 208.712 20.8636C208.491 20.9962 208.226 21.0846 208.005 21.0846C207.828 21.0846 207.696 21.0404 207.519 20.952C207.342 20.8636 207.165 20.731 206.988 20.5984C206.812 20.4658 206.679 20.2889 206.546 20.1564C206.414 19.9796 206.281 19.847 206.149 19.7586C205.618 20.1122 205.044 20.4216 204.425 20.731C203.806 20.9962 203.187 21.173 202.568 21.173C202.215 21.173 201.905 21.1288 201.596 20.9962C201.287 20.8636 201.022 20.731 200.756 20.51C200.535 20.289 200.314 20.068 200.182 19.7586C200.049 19.4934 199.961 19.1398 199.961 18.7862C199.961 18.1232 200.137 17.637 200.491 17.2392C200.845 16.8414 201.331 16.532 201.905 16.3552C202.48 16.1342 203.143 16.0016 203.894 15.9574C204.646 15.869 205.353 15.8248 206.104 15.8248V13.8358C206.104 13.2612 205.928 12.775 205.574 12.4656C205.22 12.1562 204.734 11.9794 204.204 11.9794C203.806 11.9794 203.452 12.2004 203.231 12.5982C203.01 12.996 202.878 13.4822 202.878 14.0126L200.977 13.7032ZM206.149 16.5762C205.618 16.4436 205.088 16.3552 204.557 16.3552C204.248 16.3552 203.939 16.3994 203.629 16.4436C203.32 16.532 203.055 16.6204 202.834 16.7972C202.613 16.974 202.392 17.1508 202.259 17.416C202.126 17.6812 202.038 17.9464 202.038 18.3C202.038 18.8304 202.215 19.2282 202.613 19.4492C202.966 19.6702 203.408 19.8028 203.85 19.8028C204.337 19.8028 204.823 19.7144 205.22 19.4934C205.662 19.2724 205.928 19.0956 206.149 18.963V16.5762Z" fill="white"/>
<path id="XMLID_113_" d="M215.475 20.4649C215.873 20.4207 216.182 20.3765 216.403 20.2881C216.668 20.1997 216.845 20.0671 216.978 19.8903C217.11 19.7135 217.155 19.4925 217.199 19.1831C217.243 18.8737 217.243 18.5201 217.243 18.0339V6.09994C217.243 5.48114 217.155 5.03915 216.978 4.81815C216.801 4.55295 216.315 4.46454 215.608 4.46454V4.11095L219.099 3.66895V17.9897C219.099 18.4317 219.099 18.8295 219.144 19.1389C219.188 19.4483 219.232 19.6693 219.409 19.8461C219.541 20.0229 219.718 20.1555 219.983 20.2439C220.249 20.3323 220.558 20.3765 221 20.4207V20.6859C220.558 20.6417 220.072 20.6417 219.586 20.5975C219.099 20.5975 218.613 20.5533 218.127 20.5533C217.685 20.5533 217.199 20.5533 216.801 20.5975C216.359 20.5975 215.917 20.6417 215.475 20.6859V20.4649Z" fill="white"/>
</g>
</svg>
