<svg width="100" height="116" viewBox="0 0 100 116" fill="none" xmlns="http://www.w3.org/2000/svg">
<g id="XMLID_1_">
<path id="XMLID_2_" d="M52.5221 0L51.6814 3.23009L43.5398 2.47788L36.1504 6.63717L34.5575 9.11504L32.8319 19.6903L33.6726 32.7434L32.0796 31.1504L32.8319 30.3982L31.1504 29.469L32.0796 26.9911H29.6018L28.7611 28.7168C28.7611 26.5044 27.3894 25.3982 24.6903 25.3982L27.0796 19.646L25.4867 20.4867L23.8053 18.8938L24.646 17.9646L23.8496 12.3894L27.0796 14.7788L28.7168 13.9381L27.8761 11.4602H28.7168L27.0796 9.11504L27.9203 7.38938L23.0088 8.23009V5L22.2566 6.68142L19.7788 5.75221L18.0973 6.68142L17.9204 5.44248C17.9204 4.33628 18.8053 3.62832 20.5752 3.27434L19.7345 2.52212L13.9823 3.27434V5L17.2124 4.15929L15.531 7.38938L16.4602 9.86725C16.4602 8.36283 14.5575 6.46018 10.708 4.11504L0.840705 3.18584L0 0.840708V0L18.0531 0.929203L52.5221 0ZM2.56637 112.301L0.0884942 113.142V112.301H2.56637ZM1.76991 0.929203V2.52212H2.61062V0.929203H1.76991ZM3.31858 113.097L7.38938 113.938L9.0708 111.549L9.9115 112.301L13.1416 109.823L15.6195 112.301V109.823L18.0973 113.142L20.5752 111.549L19.7345 107.478H22.2124L21.2832 109.779L24.6018 110.708L22.9203 115.619L21.5044 115.796C19.8673 115.796 18.938 114.911 18.7611 113.142L15.531 113.982L16.4602 115.664L3.23008 114.823V113.097H3.31858ZM9.0708 113.097V114.779H9.9115V113.097H9.0708ZM9.9115 0.929203V1.68142H10.8407V0.929203H9.9115ZM10.7965 2.47788V3.23009H11.5487V2.47788H10.7965ZM10.7965 113.097V113.938H12.3894V113.097H10.7965ZM17.3009 18.9381L19.7788 22.9204L18.0973 26.9911L17.3009 18.9381ZM20.6195 54.2035L21.3717 55.7964L28.7611 54.9557L27.9203 53.2743L28.7611 52.5221H30.3982L29.5575 53.2743L33.6283 56.5044L32.7876 68.8053C30.6195 68.8053 29.5575 67.7434 29.5575 65.5752L32.7876 64.7345V63.1416L29.5575 63.9823L26.3274 60.6637C25.6637 60.177 24.9557 59.9115 24.2478 59.9115C23.7611 59.9115 23.3186 60.177 23.0088 60.6637L24.0265 62.6549L24.5133 65C24.5133 66.5044 23.7611 68.0531 22.2566 69.7345L24.6903 72.2124L23.8496 72.9646L25.531 73.8053L24.6903 74.5575L25.531 79.5575L27.1239 78.7168L26.3717 76.2389L27.1239 75.4867L33.6726 82.0354C31.9911 82.4779 31.1947 83.8495 31.1947 86.1062C33.1858 88.5398 34.2035 90.3097 34.2035 91.4159L33.7168 92.5664L30.4867 90.1327L30.9734 91.4602L31.3717 92.6991C31.3717 93.3186 31.0619 93.8053 30.4425 94.2035H28.8053L29.646 89.292H28.0088L28.8496 88.4513L28.0088 83.6283L25.5752 84.3805L26.4159 83.6283L25.5752 80.2212H23.8496V81.9469H25.531L23.8496 85.177L24.6903 86.0177L23.0088 85.177L23.8496 84.3363L21.3717 80.177L22.3009 79.4248L21.6372 78.4071L21.3717 77.3451C21.3717 76.5044 22.2124 75.8407 23.8496 75.354L20.6195 74.4248L22.2566 73.6726L21.3274 72.0796H18.0973L17.2566 58.8495L18.8496 57.2566L17.2566 55.5752L20.6195 54.2035ZM17.3009 77.9646L18.8938 78.7168V81.1947L17.3009 79.5133V77.9646ZM18.8496 41.8142L20.5752 43.4956H18.0973L18.8496 41.8142ZM18.1416 59.0265V59.9557H18.8938V59.0265H18.1416ZM21.3717 45.0442L20.6195 45.9734L22.2566 47.5664L20.6195 48.4956V47.5664L18.8938 45.0885L19.823 46.0177L21.3717 45.0442ZM18.8496 62.3451V63.1858H19.7788V62.3451H18.8496ZM20.6195 55.7522V56.5044H21.3717V55.7522H20.6195ZM20.6195 60.6637V61.5044H21.3717V60.6637H20.6195ZM20.6195 89.3363L21.3717 91.0177L26.3717 90.177L24.6903 95.0885L27.9203 97.5664L33.6726 95.9734L32.8319 98.3186L34.5575 102.478L30.3982 101.726V103.319L32.8319 105L35.3097 104.071V105.796L34.5575 104.956L32.8319 105.796L41.0619 109.779L38.6726 113.938L39.4248 115.619L35.354 114.779L34.6018 115.619L36.9469 112.301L35.354 110.708H34.6018L35.354 113.097L32.8761 112.257C33.4071 111.681 33.7168 110.973 33.7168 110.088L33.4513 108.496C33.3628 107.788 33.1416 107.124 32.8761 106.504L31.1947 104.911H30.4425V108.142H32.1239L30.4425 112.212L32.1239 113.85L27.9646 112.212L30.4425 108.142L27.9646 108.982L27.1239 108.142L27.9646 105.752L21.4159 102.434L22.3451 100.752L24.7788 103.23L23.8496 100L27.0796 100.841L23.8496 94.2478L22.2566 95.0885L20.6195 94.2478L22.2566 91.8141L20.6195 89.3363ZM20.6195 113.097V113.938L23.0088 113.097V112.257L20.6195 113.097ZM21.3717 57.4336V58.2743H23.0088V56.5487L21.3717 57.4336ZM21.3717 65.5752V67.2566H22.3009V65.5752H21.3717ZM21.3717 71.3274L22.3009 73.0088H23.8938L23.0531 71.3274H21.3717ZM23.0088 40.9734L23.8496 42.6991L26.3274 41.7699L25.4867 43.4513L23.0088 42.6991L22.2566 43.4513L23.0088 40.9734ZM22.2566 73.8053V74.5575H23.8496V73.8053H22.2566ZM22.2566 88.4956H24.6903L23.0088 90.1327L22.2566 88.4956ZM23.0088 36.9026H25.4867L23.8053 38.5841L23.0088 36.9026ZM23.0088 79.5575V80.3097H23.8496V79.5575H23.0088ZM25.531 107.478V109.071L23.0531 107.478H25.531ZM23.8496 48.4513L27.9203 49.2035L31.1504 45.9734L29.6018 40.9734L30.4425 38.5841L27.9646 39.4248L28.8053 37.7434L26.4159 38.5841L28.8053 33.6726H26.4159L25.5752 31.1947H26.4159L24.7345 28.7611L26.4159 27.9203V30.3982L29.646 29.469L28.8053 31.9469L29.646 33.6283L33.7168 34.469L33.1416 36.2389L32.9646 39.1593C32.9646 41.5487 33.2301 44.646 33.7168 48.4513L31.2389 47.5221L25.5752 51.6814L23.8938 50.7522V48.4513H23.8496ZM23.8496 57.4336V58.2743H24.6903V57.4336H23.8496ZM23.8496 76.1947V77.0354H24.6903V76.1947H23.8496ZM23.8496 78.7168V79.5575H24.6903V78.7168H23.8496ZM24.6903 15.6195V16.4602H26.3717V15.6195H24.6903ZM24.6903 103.319V104.071H25.531V103.319H24.6903ZM25.531 18.0531V18.9823H26.3717V18.0531H25.531ZM25.531 56.5044V57.4336H26.3717V56.5044H25.531ZM26.3717 31.1504V31.9911H27.1239V31.1504H26.3717ZM26.3717 104.071V105H27.1239V104.071H26.3717ZM27.1239 16.4602V17.2124H27.9646V16.4602H27.1239ZM27.1239 56.5044V57.4336H28.7611V56.5044H27.1239ZM27.1239 58.2743V59.9557L31.1947 59.0265V58.2743H27.1239ZM27.1239 99.2478V100H27.9646V99.2478H27.1239ZM27.1239 100.796V102.478H27.9646V100.796H27.1239ZM27.9203 103.319V104.071H28.7611V103.319H27.9203ZM28.7611 5.75221V6.63717H29.6018V5.75221H28.7611ZM28.7611 35.2212V36.1504H29.6018V35.2212H28.7611ZM28.7611 36.9026V37.7434H29.6018V36.9026H28.7611ZM28.7611 78.7168V79.5575H29.6018V78.7168H28.7611ZM28.7611 100V100.841L31.1504 100V99.2478L28.7611 100ZM28.7611 104.071V105H30.3982V103.319L28.7611 104.071ZM28.7611 110.708V111.549H30.3982V110.708H28.7611ZM29.6018 12.3894V13.1416H30.4425V12.3894H29.6018ZM29.6018 79.5575L30.4425 82.0354H31.1947L30.4425 79.5575H29.6018ZM29.6018 86.1062V86.9469H30.4425V86.1062H29.6018ZM29.6018 88.4956V89.3363H30.4425V88.4956H29.6018ZM30.3982 9.9115V10.7522H32.0796V9.9115H30.3982ZM30.3982 56.5044V57.4336H31.1504V56.5044H30.3982ZM31.1504 37.7434V38.5841H32.0796V37.7434H31.1504ZM31.1504 59.0265V60.708H32.0796V59.0265H31.1504ZM31.1504 96.7256V97.5664H32.0796V96.7256H31.1504ZM32.8319 69.7345L33.6726 75.4867L32.0796 73.8053L32.8319 69.7345ZM32.0796 89.3363V90.177H32.8319V89.3363H32.0796ZM33.6726 3.23009V4.95575H34.6018V3.23009H33.6726ZM34.5575 109.027L36.9026 110.708H38.6283L36.1504 109.027V107.434L34.5575 109.027ZM36.9026 113.097V113.938H37.8319V113.097H36.9026ZM43.5398 0.929203V1.68142H45.1327V0.929203H43.5398ZM53.3628 113.097L54.2035 114.779H57.4336H53.3628V113.097ZM60.6637 113.097H63.1416V114.779L62.3009 113.938L60.6637 115.619L59.0708 114.779L60.6637 113.097ZM67.3451 112.301L68.938 113.142V114.823H67.3451V112.301ZM73.0531 107.478L73.8938 108.23L76.3274 107.478V109.071L78.7168 105.841H81.1947L79.6018 108.23H82.0796L82.8318 111.549L86.9026 115.619H81.1504L82.0796 113.142C80.2212 113.142 79.0708 112.611 78.6725 111.549L77.0796 112.301L78.6725 113.938L77.9203 115.619H74.6018L76.2389 113.142L72.0796 112.301L71.3274 109.071L73.0531 107.478ZM72.1681 109.779V110.708H73.8938V109.779H72.1681ZM83.6726 102.478L86.0619 103.319C85.7522 102.08 86.2389 101.504 87.6549 101.504L89.3805 101.77L86.9026 100.044C93.4956 91.1947 96.7699 85.7522 96.7699 83.7611H100C100 85.9292 98.938 86.9911 96.7699 86.9911V87.8318L99.2035 86.9911L94.292 103.363L93.5398 101.77L89.3805 102.522L87.7876 105L86.8584 104.071L82.0354 105L83.6726 102.478ZM86.9469 103.319V104.071H87.8761V103.319H86.9469ZM87.8761 112.301L90.177 113.938V115.619L87.8761 113.938V112.301ZM90.177 103.319L93.5841 105L92.6549 106.593L90.177 105.841L91.1062 105L90.177 103.319Z" fill="white"/>
</g>
</svg>
