<?xml version="1.0" encoding="utf-8"?>
<!-- Generator: Adobe Illustrator 25.2.1, SVG Export Plug-In . SVG Version: 6.00 Build 0)  -->
<svg version="1.1" id="圖層_1" xmlns="http://www.w3.org/2000/svg" xmlns:xlink="http://www.w3.org/1999/xlink" x="0px" y="0px"
	 viewBox="0 0 14.7 40" style="enable-background:new 0 0 14.7 40;" xml:space="preserve">
<style type="text/css">
	.st0{fill:#FFFFFF;}
</style>
<g>
	<path class="st0" d="M8.6,5.8c1.6,0,2.9-1.3,2.9-2.9S10.2,0,8.6,0s-3,1.2-3,2.8C5.6,4.5,7,5.8,8.6,5.8z M8.6,1c1,0,1.8,0.8,1.8,1.8
		S9.6,4.7,8.6,4.7S6.8,3.8,6.8,2.8S7.6,1,8.6,1z"/>
	<path class="st0" d="M4.1,21.7v0.2L3.7,40h1.1l0.3-18l0,0l0,0V9.6l6-1.3L8.8,23l0,0c0,0.1,0,0.2,0,0.2L13.5,40h1.2L9.9,23.1
		l1.9-11.9L13.1,26c0,0.3,0.3,0.5,0.6,0.5l0,0c0.3,0,0.5-0.3,0.5-0.6L12.7,7.5c0-0.2-0.1-0.3-0.2-0.4C12.4,7,12.2,7,12,7L4.5,8.6
		C4.4,8.7,4.2,8.7,4.1,8.9l-4,6.3c-0.1,0.2-0.1,0.4,0,0.6L4.1,21.7z M4.1,11.1v8.4l-2.7-4.1L4.1,11.1z"/>
</g>
</svg>
