<svg width="22" height="22" viewBox="0 0 22 22" fill="none" xmlns="http://www.w3.org/2000/svg">
<g id="&#240;&#159;&#166;&#134; icon &#34;Instagram&#34;">
<path id="Vector" d="M11.0025 5.35829C7.88099 5.35829 5.3632 7.87609 5.3632 10.9976C5.3632 14.119 7.88099 16.6368 11.0025 16.6368C14.1239 16.6368 16.6417 14.119 16.6417 10.9976C16.6417 7.87609 14.1239 5.35829 11.0025 5.35829ZM11.0025 14.6638C8.98529 14.6638 7.33621 13.0197 7.33621 10.9976C7.33621 8.97547 8.98038 7.3313 11.0025 7.3313C13.0246 7.3313 14.6687 8.97547 14.6687 10.9976C14.6687 13.0197 13.0196 14.6638 11.0025 14.6638ZM18.1878 5.12761C18.1878 5.8589 17.5988 6.44295 16.8724 6.44295C16.1411 6.44295 15.5571 5.854 15.5571 5.12761C15.5571 4.40123 16.146 3.81228 16.8724 3.81228C17.5988 3.81228 18.1878 4.40123 18.1878 5.12761ZM21.9227 6.46259C21.8393 4.70062 21.4368 3.13988 20.146 1.85399C18.8601 0.568099 17.2994 0.165644 15.5374 0.0773007C13.7215 -0.0257669 8.27854 -0.0257669 6.46259 0.0773007C4.70553 0.160736 3.14479 0.563191 1.85399 1.84908C0.563191 3.13497 0.165644 4.69571 0.0773007 6.45768C-0.0257669 8.27363 -0.0257669 13.7166 0.0773007 15.5325C0.160736 17.2945 0.563191 18.8552 1.85399 20.1411C3.14479 21.427 4.70062 21.8295 6.46259 21.9178C8.27854 22.0209 13.7215 22.0209 15.5374 21.9178C17.2994 21.8344 18.8601 21.4319 20.146 20.1411C21.4319 18.8552 21.8344 17.2945 21.9227 15.5325C22.0258 13.7166 22.0258 8.27854 21.9227 6.46259ZM19.5767 17.481C19.1939 18.443 18.4528 19.1841 17.4859 19.5718C16.0381 20.146 12.6025 20.0135 11.0025 20.0135C9.40247 20.0135 5.96197 20.1411 4.51902 19.5718C3.55706 19.189 2.81595 18.4479 2.42822 17.481C1.85399 16.0332 1.98651 12.5976 1.98651 10.9976C1.98651 9.39756 1.8589 5.95706 2.42822 4.51412C2.81105 3.55215 3.55215 2.81105 4.51902 2.42332C5.96688 1.84908 9.40247 1.9816 11.0025 1.9816C12.6025 1.9816 16.043 1.85399 17.4859 2.42332C18.4479 2.80614 19.189 3.54724 19.5767 4.51412C20.1509 5.96197 20.0184 9.39756 20.0184 10.9976C20.0184 12.5976 20.1509 16.0381 19.5767 17.481Z" fill="white"/>
</g>
</svg>
