<svg width="22" height="16" viewBox="0 0 22 16" fill="none" xmlns="http://www.w3.org/2000/svg">
<g id="&#240;&#159;&#166;&#134; icon &#34;YouTube&#34;">
<path id="Vector" d="M21.5402 2.42232C21.2872 1.46884 20.5417 0.717912 19.5952 0.463072C17.8795 0 11 0 11 0C11 0 4.12043 0 2.40474 0.463072C1.45821 0.717952 0.712728 1.46884 0.45971 2.42232C0 4.15056 0 7.75636 0 7.75636C0 7.75636 0 11.3622 0.45971 13.0904C0.712728 14.0439 1.45821 14.7635 2.40474 15.0184C4.12043 15.4814 11 15.4814 11 15.4814C11 15.4814 17.8795 15.4814 19.5952 15.0184C20.5417 14.7635 21.2872 14.0439 21.5402 13.0904C21.9999 11.3622 21.9999 7.75636 21.9999 7.75636C21.9999 7.75636 21.9999 4.15056 21.5402 2.42232ZM8.74996 11.0302V4.48256L14.4999 7.75644L8.74996 11.0302Z" fill="white"/>
</g>
</svg>
