<?xml version="1.0" encoding="utf-8"?>
<!-- Generator: Adobe Illustrator 25.2.1, SVG Export Plug-In . SVG Version: 6.00 Build 0)  -->
<svg version="1.1" id="图层_2_xA0_影像_1_" xmlns="http://www.w3.org/2000/svg" xmlns:xlink="http://www.w3.org/1999/xlink"
	 x="0px" y="0px" viewBox="0 0 500 356.3" style="enable-background:new 0 0 500 356.3;" xml:space="preserve">
<style type="text/css">
	.st0{fill:#FFFFFF;}
</style>
<g>
	<g id="XMLID_1_">
		<path id="XMLID_2_" class="st0" d="M260.8,0l-1.9,7.3l-18.4-1.7L223.8,15l-3.6,5.6l-3.9,23.9l1.9,29.5l-3.6-3.6l1.7-1.7l-3.8-2.1
			l2.1-5.6H209l-1.9,3.9c0-5-3.1-7.5-9.2-7.5l5.4-13l-3.6,1.9l-3.8-3.6l1.9-2.1L196,28l7.3,5.4l3.7-1.9l-1.9-5.6h1.9l-3.7-5.3
			l1.9-3.9l-11.1,1.9v-7.3l-1.7,3.8l-5.6-2.1l-3.8,2.1l-0.4-2.8c0-2.5,2-4.1,6-4.9l-1.9-1.7l-13,1.7v3.9l7.3-1.9l-3.8,7.3l2.1,5.6
			c0-3.4-4.3-7.7-13-13L144,7.2l-1.9-5.3V0l40.8,2.1L260.8,0z M147.9,253.8l-5.6,1.9v-1.9H147.9z M146.1,2.1v3.6h1.9V2.1H146.1z
			 M149.6,255.6l9.2,1.9l3.8-5.4l1.9,1.7l7.3-5.6l5.6,5.6v-5.6l5.6,7.5l5.6-3.6l-1.9-9.2h5.6l-2.1,5.2l7.5,2.1l-3.8,11.1l-3.2,0.4
			c-3.7,0-5.8-2-6.2-6l-7.3,1.9l2.1,3.8l-29.9-1.9v-3.9H149.6z M162.6,255.6v3.8h1.9v-3.8L162.6,255.6L162.6,255.6z M164.5,2.1v1.7
			h2.1V2.1H164.5z M166.5,5.6v1.7h1.7V5.6H166.5z M166.5,255.6v1.9h3.6v-1.9H166.5z M181.2,42.8l5.6,9L183,61L181.2,42.8z
			 M188.7,122.5l1.7,3.6l16.7-1.9l-1.9-3.8l1.9-1.7h3.7l-1.9,1.7l9.2,7.3l-1.9,27.8c-4.9,0-7.3-2.4-7.3-7.3l7.3-1.9v-3.6l-7.3,1.9
			l-7.3-7.5c-1.5-1.1-3.1-1.7-4.7-1.7c-1.1,0-2.1,0.6-2.8,1.7l2.3,4.5l1.1,5.3c0,3.4-1.7,6.9-5.1,10.7l5.5,5.6l-1.9,1.7l3.8,1.9
			l-1.9,1.7l1.9,11.3l3.6-1.9l-1.7-5.6l1.7-1.7l14.8,14.8c-3.8,1-5.6,4.1-5.6,9.2c4.5,5.5,6.8,9.5,6.8,12l-1.1,2.6l-7.3-5.5l1.1,3
			l0.9,2.8c0,1.4-0.7,2.5-2.1,3.4h-3.7l1.9-11.1h-3.7l1.9-1.9l-1.9-10.9l-5.5,1.7l1.9-1.7l-1.9-7.7H196v3.9h3.8l-3.8,7.3l1.9,1.9
			l-3.8-1.9l1.9-1.9l-5.6-9.4l2.1-1.7l-1.5-2.3l-0.6-2.4c0-1.9,1.9-3.4,5.6-4.5l-7.3-2.1l3.7-1.7l-2.1-3.6H183l-1.9-29.9l3.6-3.6
			l-3.6-3.8L188.7,122.5z M181.2,176.2l3.6,1.7v5.6l-3.6-3.8V176.2z M184.7,94.5l3.9,3.8H183L184.7,94.5z M183.1,133.4v2.1h1.7v-2.1
			H183.1z M190.4,101.8l-1.7,2.1l3.7,3.6l-3.7,2.1v-2.1l-3.9-5.6l2.1,2.1L190.4,101.8z M184.7,140.9v1.9h2.1v-1.9H184.7z M188.7,126
			v1.7h1.7V126H188.7z M188.7,137.1v1.9h1.7v-1.9H188.7z M188.7,201.9l1.7,3.8l11.3-1.9l-3.8,11.1l7.3,5.6l13-3.6l-1.9,5.3l3.9,9.4
			l-9.4-1.7v3.6l5.5,3.8l5.6-2.1v3.9l-1.7-1.9l-3.9,1.9l18.6,9l-5.4,9.4l1.7,3.8l-9.2-1.9l-1.7,1.9l5.3-7.5l-3.6-3.6h-1.7l1.7,5.4
			l-5.6-1.9c1.2-1.3,1.9-2.9,1.9-4.9l-0.6-3.6c-0.2-1.6-0.7-3.1-1.3-4.5l-3.8-3.6h-1.7v7.3h3.8l-3.8,9.2l3.8,3.7l-9.4-3.7l5.6-9.2
			l-5.6,1.9l-1.9-1.9l1.9-5.4l-14.8-7.5l2.1-3.8l5.5,5.6L196,226l7.3,1.9L196,213l-3.6,1.9l-3.7-1.9l3.7-5.5L188.7,201.9z
			 M188.7,255.6v1.9l5.4-1.9v-1.9L188.7,255.6z M190.4,129.8v1.9h3.7v-3.9L190.4,129.8z M190.4,148.2v3.8h2.1v-3.8H190.4z
			 M190.4,161.2l2.1,3.8h3.6l-1.9-3.8H190.4z M194.1,92.6l1.9,3.9l5.6-2.1l-1.9,3.8l-5.6-1.7l-1.7,1.7L194.1,92.6z M192.4,166.8v1.7
			h3.6v-1.7H192.4z M192.4,200h5.5l-3.8,3.7L192.4,200z M194.1,83.4h5.6l-3.8,3.8L194.1,83.4z M194.1,179.8v1.7h1.9v-1.7H194.1z
			 M199.8,242.9v3.6l-5.6-3.6H199.8z M196,109.5l9.2,1.7l7.3-7.3L209,92.6l1.9-5.4l-5.6,1.9l1.9-3.8l-5.4,1.9l5.4-11.1h-5.4
			l-1.9-5.6h1.9L198,65l3.8-1.9v5.6l7.3-2.1l-1.9,5.6l1.9,3.8l9.2,1.9l-1.3,4l-0.4,6.6c0,5.4,0.6,12.4,1.7,21l-5.6-2.1l-12.8,9.4
			l-3.8-2.1L196,109.5L196,109.5z M196,129.8v1.9h1.9v-1.9H196z M196,172.2v1.9h1.9v-1.9H196z M196,177.9v1.9h1.9v-1.9H196z
			 M197.9,35.3v1.9h3.8v-1.9H197.9z M197.9,233.5v1.7h1.9v-1.7H197.9z M199.8,40.8v2.1h1.9v-2.1H199.8z M199.8,127.7v2.1h1.9v-2.1
			C201.7,127.7,199.8,127.7,199.8,127.7z M201.7,70.4v1.9h1.7v-1.9H201.7z M201.7,235.2v2.1h1.7v-2.1H201.7z M203.4,37.2v1.7h1.9
			v-1.7H203.4z M203.4,127.7v2.1h3.7v-2.1C207.1,127.7,203.4,127.7,203.4,127.7z M203.4,131.7v3.8l9.2-2.1v-1.7H203.4z M203.4,224.3
			v1.7h1.9v-1.7H203.4z M203.4,227.8v3.8h1.9v-3.8H203.4z M205.2,233.5v1.7h1.9v-1.7H205.2z M207.1,13v2h1.9v-2H207.1z M207.1,79.6
			v2.1h1.9v-2.1H207.1z M207.1,83.4v1.9h1.9v-1.9H207.1z M207.1,177.9v1.9h1.9v-1.9H207.1z M207.1,226v1.9l5.4-1.9v-1.7L207.1,226z
			 M207.1,235.2v2.1h3.7v-3.8L207.1,235.2z M207.1,250.2v1.9h3.7v-1.9H207.1z M209,28v1.7h1.9V28H209z M209,179.8l1.9,5.6h1.7
			l-1.7-5.6H209z M209,194.6v1.9h1.9v-1.9H209z M209,200v1.9h1.9V200H209z M210.8,22.4v1.9h3.8v-1.9H210.8z M210.8,127.7v2.1h1.7
			v-2.1C212.5,127.7,210.8,127.7,210.8,127.7z M212.5,85.3v1.9h2.1v-1.9H212.5z M212.5,133.4v3.8h2.1v-3.8H212.5z M212.5,218.6v1.9
			h2.1v-1.9H212.5z M216.3,157.6l1.9,13l-3.6-3.8L216.3,157.6z M214.6,201.9v1.9h1.7v-1.9H214.6z M218.2,7.3v3.9h2.1V7.3H218.2z
			 M220.2,246.4l5.3,3.8h3.9l-5.6-3.8v-3.6L220.2,246.4z M225.5,255.6v1.9h2.1v-1.9H225.5z M240.5,2.1v1.7h3.6V2.1H240.5z
			 M262.7,255.6l1.9,3.8h7.3h-9.2L262.7,255.6L262.7,255.6z M279.2,255.6h5.6v3.8l-1.9-1.9l-3.7,3.8l-3.6-1.9L279.2,255.6z
			 M294.3,253.8l3.6,1.9v3.8h-3.6V253.8z M307.2,242.9l1.9,1.7l5.5-1.7v3.6l5.4-7.3h5.6l-3.6,5.4h5.6l1.7,7.5l9.2,9.2h-13l2.1-5.6
			c-4.2,0-6.8-1.2-7.7-3.6l-3.6,1.7l3.6,3.7l-1.7,3.8h-7.5l3.7-5.6l-9.4-1.9l-1.7-7.3L307.2,242.9z M305.2,248.1v2.1h3.9v-2.1H305.2
			z M331.2,231.6l5.4,1.9c-0.7-2.8,0.4-4.1,3.6-4.1l3.9,0.6l-5.6-3.9c14.9-20,22.3-32.3,22.3-36.8h7.3c0,4.9-2.4,7.3-7.3,7.3v1.9
			l5.5-1.9l-11.1,37l-1.7-3.6l-9.4,1.7l-3.6,5.6l-2.1-2.1l-10.9,2.1L331.2,231.6z M338.6,233.5v1.7h2.1v-1.7H338.6z M340.7,253.8
			l5.2,3.7v3.8l-5.2-3.8V253.8z M345.9,233.5l7.7,3.8l-2.1,3.6l-5.6-1.7l2.1-1.9L345.9,233.5z"/>
	</g>
	<g id="XMLID_78_">
		<path id="XMLID_79_" class="st0" d="M0,308.7h21.7v2.4h-5.2c-0.8,0-1.4,0.2-1.8,0.6c-0.4,0.4-0.6,1.1-0.6,2v36.8
			c0,0.9,0.2,1.5,0.7,1.9s1.5,0.6,3,0.6h6.6c3.5,0,6.3-1.2,8.6-3.5c2.2-2.3,3.8-6.4,4.8-12.1H40l-1.1,18H0V353h3.8
			c1.3,0,2.2-0.2,2.7-0.7s0.8-1.3,0.8-2.4v-36.5c0-0.8-0.2-1.4-0.7-1.8c-0.4-0.4-1.1-0.6-2-0.6H0V308.7z"/>
		<path id="XMLID_81_" class="st0" d="M58.4,342c0-0.9,0-1.6-0.1-2.3c-0.1-0.7-0.2-1.2-0.5-1.7c-0.3-0.4-0.7-0.8-1.2-1.1
			c-0.5-0.3-1.3-0.5-2.2-0.6v-0.8l8.2-0.5v15.8c0,0.9,0.1,1.6,0.2,2.1c0.1,0.5,0.4,0.9,0.7,1.2c0.3,0.3,0.8,0.5,1.3,0.6
			s1.2,0.2,2,0.2v0.6c-1.3-0.1-2.5-0.1-3.8-0.2c-1.3,0-2.5-0.1-3.8-0.1c-0.8,0-1.6,0-2.4,0.1c-0.8,0-1.6,0.1-2.4,0.2V355
			c0.7,0,1.3-0.1,1.8-0.2s0.9-0.3,1.2-0.6c0.3-0.3,0.6-0.7,0.7-1.2c0.1-0.5,0.2-1.2,0.2-2.1L58.4,342L58.4,342z M60,319.2
			c0.8,0,1.5,0.3,2,0.9c0.6,0.6,0.8,1.3,0.8,2.1c0,0.8-0.3,1.5-0.8,2.1c-0.6,0.6-1.2,0.9-2,0.9s-1.5-0.3-2-0.9
			c-0.6-0.6-0.8-1.3-0.8-2.1c0-0.8,0.3-1.5,0.8-2.1S59.2,319.2,60,319.2z"/>
		<path id="XMLID_84_" class="st0" d="M79.5,336.2l7.9-1.2v2.8c1-0.7,2.1-1.5,3.3-2.2c1.2-0.7,2.5-1,3.6-1c1,0,2,0.1,2.9,0.4
			s1.7,0.7,2.5,1.2c0.7,0.6,1.3,1.3,1.7,2.3c0.4,1,0.6,2.2,0.6,3.6v9.5c0,1.2,0.3,2,1,2.3c0.6,0.4,1.6,0.7,2.8,0.9v0.6
			c-1-0.1-2.2-0.1-3.3-0.2c-1.2,0-2.4-0.1-3.6-0.1c-0.8,0-1.6,0-2.4,0.1c-0.8,0-1.5,0.1-2.2,0.2V355c1.2-0.2,2-0.5,2.7-0.9
			c0.6-0.4,0.9-1.1,0.9-2.3v-8.7c0-1.8-0.4-3.3-1.2-4.2c-0.8-1-2-1.5-3.7-1.5c-0.6,0-1.2,0.1-1.9,0.3c-0.6,0.2-1.2,0.4-1.8,0.7
			c-0.5,0.3-1,0.6-1.3,1c-0.4,0.4-0.5,0.7-0.5,1v11.4c0,1.2,0.3,2,1,2.3c0.7,0.4,1.7,0.7,3.1,0.9v0.6c-1.2-0.1-2.4-0.1-3.6-0.2
			c-1.2,0-2.4-0.1-3.6-0.1c-0.8,0-1.6,0-2.4,0.1c-0.8,0-1.6,0.1-2.4,0.2V355c1.2-0.2,2.2-0.5,2.8-0.9c0.6-0.4,1-1.1,1-2.3v-12.5
			c0-1.1-0.4-1.7-1.1-2s-1.6-0.4-2.6-0.4v-0.7H79.5z"/>
		<path id="XMLID_86_" class="st0" d="M145.5,355.6c-1-0.1-2.1-0.1-3.3-0.2c-1.2,0-2.4-0.1-3.6-0.1c-0.8,0-1.6,0-2.4,0.1
			c-0.8,0-1.5,0.1-2.2,0.2V355c1.1-0.2,2-0.5,2.7-0.9c0.6-0.4,0.9-1.1,0.9-2.3v-8.7c0-1.8-0.4-3.3-1.2-4.2c-0.8-1-2-1.5-3.7-1.5
			c-0.6,0-1.2,0.1-1.9,0.3c-0.7,0.2-1.2,0.4-1.8,0.7c-0.5,0.3-1,0.6-1.3,1c-0.4,0.4-0.5,0.7-0.5,1v11.4c0,1.2,0.3,2,1,2.3
			c0.7,0.4,1.7,0.7,3.1,0.9v0.6c-1.2-0.1-2.4-0.1-3.6-0.2c-1.2,0-2.4-0.1-3.6-0.1c-0.8,0-1.6,0-2.4,0.1c-0.8,0-1.6,0.1-2.4,0.2V355
			c1.2-0.2,2.2-0.5,2.8-0.9c0.6-0.4,1-1.1,1-2.3v-27.5c0-1.3-0.1-2.3-0.2-3s-0.3-1.3-0.6-1.7c-0.3-0.4-0.7-0.6-1.2-0.7
			s-1.2-0.2-2-0.2V318l8.2-0.9v20.8c1-0.7,2.1-1.5,3.3-2.2c1.3-0.7,2.5-1,3.6-1c1,0,2,0.1,2.9,0.4s1.7,0.7,2.4,1.2
			c0.7,0.6,1.3,1.3,1.7,2.3s0.6,2.2,0.6,3.6v9.5c0,1.2,0.3,2,1,2.3c0.6,0.4,1.6,0.7,2.8,0.9v0.7H145.5z"/>
		<path id="XMLID_88_" class="st0" d="M161.1,339.7c0.3-1.1,0.7-2,1.2-2.7s1.1-1.2,1.8-1.5s1.4-0.6,2.3-0.7c0.9-0.1,1.8-0.1,2.8-0.1
			c0.9,0,1.9,0.1,2.8,0.3c0.9,0.2,1.7,0.5,2.5,1c0.7,0.5,1.3,1.1,1.8,1.9c0.4,0.8,0.7,1.7,0.7,2.8v10c0,0.7,0.2,1.3,0.5,1.8
			c0.4,0.5,0.9,0.8,1.7,0.8c0.7,0,1.4-0.2,1.9-0.6c0.6-0.4,1.1-0.8,1.6-1.2l0.5,0.6c-0.4,0.4-0.8,0.8-1.3,1.3s-1,0.9-1.5,1.4
			c-0.5,0.4-1.1,0.8-1.6,1.1c-0.6,0.3-1.1,0.5-1.6,0.5c-0.4,0-0.7-0.1-1.1-0.3c-0.4-0.2-0.8-0.5-1.2-0.8s-0.7-0.7-1-1
			c-0.3-0.4-0.6-0.7-0.9-0.9c-1.2,0.8-2.5,1.5-3.9,2.2c-1.4,0.6-2.8,1-4.2,1c-0.7,0-1.5-0.1-2.2-0.4s-1.3-0.6-1.9-1.1
			c-0.5-0.5-1-1-1.3-1.7c-0.3-0.6-0.5-1.4-0.5-2.2c0-1.5,0.4-2.6,1.2-3.5s1.9-1.6,3.2-2c1.3-0.5,2.8-0.8,4.5-0.9
			c1.7-0.2,3.3-0.3,5-0.3V340c0-1.3-0.4-2.4-1.2-3.1s-1.9-1.1-3.1-1.1c-0.9,0-1.7,0.5-2.2,1.4s-0.8,2-0.8,3.2L161.1,339.7z
			 M172.8,346.2c-1.2-0.3-2.4-0.5-3.6-0.5c-0.7,0-1.4,0.1-2.1,0.2c-0.7,0.2-1.3,0.4-1.8,0.8s-1,0.8-1.3,1.4s-0.5,1.2-0.5,2
			c0,1.2,0.4,2.1,1.3,2.6c0.8,0.5,1.8,0.8,2.8,0.8c1.2,0,2.2-0.2,3.2-0.7c0.9-0.5,1.7-0.9,2.1-1.2L172.8,346.2L172.8,346.2z"/>
		<path id="XMLID_91_" class="st0" d="M202.3,348.8c0,1.5,0.4,2.7,1.2,3.5s1.9,1.2,3.4,1.2c1.2,0,2.3-0.3,3.4-0.8
			c1.1-0.6,2-1.1,2.5-1.7v-11.4c0-0.5,0-0.9-0.1-1.3s-0.2-0.7-0.5-1.1c-0.3-0.3-0.7-0.6-1.3-0.8c-0.6-0.2-1.4-0.4-2.3-0.6v-0.6
			l8.5-0.6v16.5c0,1.4,0.3,2.3,1,2.7c0.7,0.4,1.7,0.7,2.9,0.8v0.5c-1.4,0.1-2.7,0.1-4.1,0.2c-1.4,0-2.7,0.1-4.1,0.2v-2.8
			c-1.2,0.9-2.6,1.7-3.9,2.4c-1.4,0.7-2.9,1-4.5,1c-1.7,0-3.2-0.5-4.4-1.5s-1.8-2.5-1.8-4.5v-11.2c0-1.1-0.3-1.8-0.9-2.2
			c-0.6-0.4-1.6-0.7-3.2-0.9v-0.7l8.2-0.7L202.3,348.8L202.3,348.8z"/>
		<path id="XMLID_93_" class="st0" d="M233.3,337.2v-0.9c1.1,0,2.1-0.3,3-0.9c0.8-0.5,1.5-1.2,2.2-2c0.6-0.8,1.1-1.7,1.5-2.7
			s0.8-2,1.1-2.9h0.8v7.8h7.4v1.6h-7.4v12.6c0,0.5,0,0.9,0.1,1.4c0,0.5,0.2,0.9,0.3,1.2c0.2,0.4,0.4,0.6,0.7,0.9
			c0.3,0.2,0.7,0.3,1.3,0.3c1.1,0,2-0.2,2.7-0.7s1.4-1.1,2.2-1.8l0.5,0.5c-0.6,0.5-1.2,1.1-1.8,1.6c-0.6,0.6-1.2,1.1-1.8,1.5
			c-0.6,0.5-1.3,0.8-2.1,1.1c-0.7,0.3-1.5,0.4-2.4,0.4c-1.5,0-2.5-0.5-3.1-1.4s-0.8-2-0.8-3.3v-14.4L233.3,337.2L233.3,337.2z"/>
		<path id="XMLID_95_" class="st0" d="M267,344.1c0,1.9,0.2,3.4,0.7,4.6s1.1,2.2,1.8,2.9c0.7,0.7,1.5,1.2,2.4,1.5
			c0.8,0.3,1.6,0.4,2.3,0.4c1.5,0,2.9-0.2,4.1-0.7s2.4-1.2,3.4-2.3l0.9,0.9c-1.5,1.6-3,2.8-4.5,3.6c-1.5,0.8-3.4,1.2-5.5,1.2
			c-1.6,0-2.9-0.3-4.1-0.9s-2.3-1.4-3.1-2.4c-0.9-1-1.5-2.2-2-3.5s-0.7-2.6-0.7-4s0.2-2.7,0.7-4c0.4-1.3,1.1-2.4,2-3.5
			c0.9-1,1.9-1.8,3.1-2.4s2.6-0.9,4.1-0.9c2.8,0,5.1,0.8,6.8,2.3c1.7,1.5,2.8,3.9,3.2,7.1L267,344.1L267,344.1z M277.5,342.5
			c-0.1-1-0.2-1.8-0.4-2.6c-0.2-0.8-0.5-1.4-0.9-1.9s-0.9-0.9-1.6-1.2c-0.6-0.3-1.5-0.4-2.5-0.4c-0.8,0-1.4,0.2-2.1,0.6
			c-0.6,0.4-1.2,0.9-1.6,1.5s-0.8,1.3-1,2s-0.4,1.4-0.4,2.1h10.5V342.5z"/>
		<path id="XMLID_98_" class="st0" d="M299.1,308.7h24.4c4.8,0,8.4,1.1,11,3.2c2.5,2.1,3.8,4.7,3.8,7.9c0,2.7-0.9,4.9-2.7,6.8
			c-1.8,1.8-4.4,3.3-8,4.4c4.4,0.9,7.7,2.4,9.9,4.4c2.2,2,3.3,4.5,3.3,7.5c0,2.3-0.6,4.4-1.9,6.2c-1.3,1.8-3.3,3.3-6.3,4.6
			c-2.9,1.2-6.2,1.9-9.9,1.9h-23.6V353h3.9c1.2,0,2-0.2,2.5-0.6s0.8-0.8,0.8-1.3v-37.4c0-0.9-0.3-1.6-0.8-2
			c-0.5-0.5-1.3-0.7-2.3-0.7h-4.1L299.1,308.7L299.1,308.7z M313.1,330.1h8.9c2.7,0,4.9-0.8,6.5-2.4s2.4-4.2,2.4-7.9
			c0-2.2-0.4-4-1.2-5.3c-0.8-1.3-1.9-2.2-3.4-2.8c-1.5-0.6-4-0.9-7.6-0.9c-2.6,0-4.1,0.2-4.7,0.6s-0.9,1-0.9,1.9L313.1,330.1
			L313.1,330.1z M313.1,332.5v18c0,0.8,0.2,1.5,0.7,1.9s1.4,0.6,2.7,0.6h5.7c3.7,0,6.5-0.8,8.3-2.5s2.7-4.2,2.7-7.7
			c0-3.2-0.9-5.7-2.8-7.6c-1.9-1.8-4.4-2.8-7.7-2.8h-9.6V332.5z"/>
		<path id="XMLID_102_" class="st0" d="M356.1,355c1.2-0.2,2.2-0.5,2.8-0.9c0.6-0.4,1-1.1,1-2.3v-12.5c0-1.1-0.4-1.7-1.1-2
			s-1.6-0.4-2.6-0.4v-0.6l7.9-1.2v3.1c0.4-0.3,0.9-0.7,1.5-1.1c0.6-0.5,1.2-0.9,1.8-1.4c0.6-0.5,1.3-0.8,1.9-1.2
			c0.6-0.3,1.3-0.5,1.9-0.5c1.4,0,2.5,0.4,3.2,1.2c0.7,0.8,1.1,1.8,1.2,3.2l-4.3,2.3c0.1-0.2,0.1-0.5,0.2-0.8s0.1-0.6,0.1-1
			c0-0.5-0.2-1-0.5-1.4c-0.4-0.4-0.8-0.7-1.5-0.7c-0.5,0-1,0.1-1.5,0.4c-0.5,0.2-1,0.6-1.5,0.9c-0.5,0.4-0.9,0.8-1.3,1.2
			c-0.4,0.4-0.8,0.8-1.1,1.1v11.4c0,1.2,0.3,2,1,2.3c0.7,0.4,1.7,0.7,3.1,0.9v0.6c-1.2-0.1-2.4-0.1-3.6-0.2c-1.2,0-2.4-0.1-3.7-0.1
			c-0.8,0-1.6,0-2.4,0.1c-0.8,0-1.6,0.1-2.4,0.2V355H356.1z"/>
		<path id="XMLID_104_" class="st0" d="M391.8,342c0-0.9,0-1.6-0.1-2.3c0-0.7-0.2-1.2-0.5-1.7c-0.3-0.4-0.7-0.8-1.2-1.1
			c-0.5-0.3-1.3-0.5-2.2-0.6v-0.8l8.2-0.5v15.8c0,0.9,0.1,1.6,0.2,2.1s0.4,0.9,0.7,1.2c0.3,0.3,0.8,0.5,1.3,0.6
			c0.6,0.1,1.2,0.2,2,0.2v0.6c-1.2-0.1-2.5-0.1-3.8-0.2c-1.3,0-2.5-0.1-3.8-0.1c-0.8,0-1.6,0-2.4,0.1c-0.8,0-1.6,0.1-2.4,0.2V355
			c0.7,0,1.3-0.1,1.8-0.2s0.9-0.3,1.2-0.6c0.3-0.3,0.6-0.7,0.7-1.2s0.2-1.2,0.2-2.1L391.8,342L391.8,342z M393.3,319.2
			c0.8,0,1.4,0.3,2,0.9s0.8,1.3,0.8,2.1c0,0.8-0.3,1.5-0.8,2.1c-0.6,0.6-1.2,0.9-2,0.9s-1.5-0.3-2-0.9c-0.6-0.6-0.8-1.3-0.8-2.1
			c0-0.8,0.3-1.5,0.8-2.1C391.9,319.5,392.5,319.2,393.3,319.2z"/>
		<path id="XMLID_107_" class="st0" d="M435.4,350c0,0.9,0,1.7,0.2,2.3c0.1,0.6,0.3,1.1,0.6,1.5c0.3,0.4,0.8,0.6,1.4,0.8
			c0.6,0.1,1.4,0.2,2.3,0.2v0.6c-1.5,0-2.9,0-4.3,0.1c-1.4,0-2.9,0.1-4.4,0.2v-2c-0.8,0.7-2,1.3-3.5,1.9c-1.5,0.5-3.1,0.8-4.8,0.8
			c-1.5,0-2.8-0.3-4-0.8c-1.2-0.6-2.2-1.3-3.1-2.3c-0.8-1-1.5-2.1-2-3.3c-0.5-1.3-0.7-2.6-0.7-3.9c0-1.6,0.3-3.1,0.9-4.5
			s1.4-2.5,2.4-3.6c1-1,2.2-1.8,3.6-2.3c1.4-0.6,2.9-0.8,4.5-0.8c1.2,0,2.3,0.2,3.5,0.6c1.1,0.4,2.2,0.9,3.2,1.6v-14
			c0-0.9-0.1-1.6-0.2-2.1s-0.4-1-0.7-1.3c-0.4-0.3-0.8-0.6-1.4-0.7s-1.3-0.3-2.2-0.3v-0.6l8.8-0.9L435.4,350L435.4,350z
			 M431.2,340.5c-0.1-0.5-0.4-1-0.8-1.5s-0.9-1-1.5-1.4s-1.3-0.8-2.1-1c-0.8-0.3-1.5-0.4-2.3-0.4c-1.2,0-2.3,0.3-3.1,0.8
			c-0.8,0.5-1.5,1.2-2.1,2.1c-0.5,0.9-0.9,1.9-1.2,3c-0.3,1.1-0.4,2.2-0.4,3.3c0,1.1,0.1,2.2,0.4,3.3c0.2,1.1,0.6,2.1,1.2,3
			c0.5,0.9,1.2,1.6,2.1,2.1c0.8,0.5,1.9,0.8,3.1,0.8c0.8,0,1.6-0.1,2.4-0.4s1.4-0.6,2.1-0.9c0.6-0.4,1.1-0.8,1.5-1.2
			c0.4-0.4,0.7-0.8,0.8-1.1v-10.5H431.2z"/>
		<path id="XMLID_110_" class="st0" d="M454.7,339.7c0.3-1.1,0.7-2,1.2-2.7s1.1-1.2,1.8-1.5c0.7-0.3,1.4-0.6,2.3-0.7
			s1.8-0.1,2.7-0.1c0.9,0,1.9,0.1,2.8,0.3c0.9,0.2,1.7,0.5,2.5,1c0.7,0.5,1.3,1.1,1.8,1.9c0.4,0.8,0.7,1.7,0.7,2.8v10
			c0,0.7,0.2,1.3,0.5,1.8c0.4,0.5,0.9,0.8,1.7,0.8c0.7,0,1.4-0.2,1.9-0.6c0.6-0.4,1.1-0.8,1.6-1.2l0.5,0.6c-0.4,0.4-0.8,0.8-1.3,1.3
			s-1,0.9-1.5,1.4c-0.5,0.4-1.1,0.8-1.7,1.1c-0.5,0.3-1.1,0.5-1.6,0.5c-0.4,0-0.7-0.1-1.1-0.3c-0.4-0.2-0.8-0.5-1.2-0.8
			c-0.4-0.3-0.7-0.7-1-1c-0.3-0.4-0.6-0.7-0.9-0.9c-1.2,0.8-2.5,1.5-3.9,2.2c-1.4,0.6-2.8,1-4.2,1c-0.8,0-1.5-0.1-2.2-0.4
			s-1.3-0.6-1.9-1.1c-0.5-0.5-1-1-1.3-1.7c-0.3-0.6-0.5-1.4-0.5-2.2c0-1.5,0.4-2.6,1.2-3.5c0.8-0.9,1.9-1.6,3.2-2
			c1.3-0.5,2.8-0.8,4.5-0.9c1.7-0.2,3.3-0.3,5-0.3V340c0-1.3-0.4-2.4-1.2-3.1c-0.8-0.7-1.9-1.1-3.1-1.1c-0.9,0-1.7,0.5-2.2,1.4
			s-0.8,2-0.8,3.2L454.7,339.7z M466.4,346.2c-1.2-0.3-2.4-0.5-3.6-0.5c-0.7,0-1.4,0.1-2.1,0.2c-0.7,0.2-1.3,0.4-1.8,0.8
			s-1,0.8-1.3,1.4s-0.5,1.2-0.5,2c0,1.2,0.4,2.1,1.3,2.6c0.8,0.5,1.8,0.8,2.8,0.8c1.1,0,2.2-0.2,3.1-0.7c1-0.5,1.6-0.9,2.1-1.2
			V346.2z"/>
		<path id="XMLID_113_" class="st0" d="M487.5,355c0.9-0.1,1.6-0.2,2.1-0.4c0.6-0.2,1-0.5,1.3-0.9s0.4-0.9,0.5-1.6s0.1-1.5,0.1-2.6
			v-27c0-1.4-0.2-2.4-0.6-2.9c-0.4-0.6-1.5-0.8-3.1-0.8V318l7.9-1v32.4c0,1,0,1.9,0.1,2.6s0.2,1.2,0.6,1.6c0.3,0.4,0.7,0.7,1.3,0.9
			c0.6,0.2,1.3,0.3,2.3,0.4v0.6c-1-0.1-2.1-0.1-3.2-0.2c-1.1,0-2.2-0.1-3.3-0.1c-1,0-2.1,0-3,0.1c-1,0-2,0.1-3,0.2L487.5,355
			L487.5,355z"/>
	</g>
</g>
</svg>
